<svg id="Layer_1" data-name="Layer 1" xmlns="http://www.w3.org/2000/svg" xmlns:xlink="http://www.w3.org/1999/xlink" viewBox="0 0 595.28 446.98"><defs><style>.cls-1{fill:none;}.cls-2{clip-path:url(#clip-path);}.cls-3{fill:#58585b;}.cls-4{fill:#fff;}</style><clipPath id="clip-path"><path class="cls-1" d="M507.49,209.45c1.84,218-92.06,190.42-205.63,190.42S96.23,314.61,96.23,209.45,188.29,19,301.86,19,506.6,104.28,507.49,209.45Z"/></clipPath></defs><title>illustration</title><g class="cls-2"><path class="cls-3" d="M338.13,91.05a9.51,9.51,0,0,1-7.58-6.84A13.46,13.46,0,0,1,332.18,74c1.78-3.1,3.4-5.34,7.35-7.25l8.63,10.39Z"/><path class="cls-4" d="M320.55,132c-.3,9.55,2.44,16.8,6.56,24.09,5.13,9.08,14.58,14.47,24.41,18,6.16,2.18,13.12,4,19.59,2.1a16.18,16.18,0,0,0,9-6.35c2-3.12.51-8.5-1-11.56a13.44,13.44,0,0,0-7.39-6.88c-2.06-.73-3.4-2-5.33-2.86-2.23-1.05-4.42-2.2-6.62-3.3a28.59,28.59,0,0,1-14.15-16.82C339.78,108.79,338.93,97,339,75.23l25.08-11"/><path class="cls-3" d="M319.4,132A43.13,43.13,0,0,0,344,172.16c7.6,3.65,16.8,7.06,25.34,5.55,6.73-1.19,13.59-6,12.78-13.45a18.72,18.72,0,0,0-3.84-9.52c-2.48-3.11-5.8-4.15-9.15-6.06-4.54-2.59-9.64-4.37-13.69-7.74A27.91,27.91,0,0,1,346.76,128a131.79,131.79,0,0,1-5.64-26.58c-.45-4.25-.69-8.51-.82-12.78-.07-2.26-.1-4.51-.12-6.77a27.88,27.88,0,0,0,0-3.63c.05.35-.14-2.47-.38-2.13.65-.9,3.8-1.67,4.75-2.09l8.35-3.68,11.8-5.2c1.35-.6.18-2.58-1.16-2l-25.08,11a1.13,1.13,0,0,0-.57,1c0,11.78.16,23.58,2.22,35.21,1.94,11,4.18,23.44,12.76,31.28s24.65,8.89,26.87,22c1.69,10-10.9,12.81-18.37,11.73a57.87,57.87,0,0,1-19-6.69C329,161.41,321.46,147.13,321.7,132a1.15,1.15,0,0,0-2.3,0Z"/><path class="cls-4" d="M255.85,292.54a15,15,0,0,1-2.5-5.82,7.08,7.08,0,0,1,1.62-5.94c2-2,5.24-2.26,7.88-1.28s4.78,3,6.79,4.93,4,4,6.6,5.22"/><path class="cls-3" d="M256.52,292.15c-1.81-3-4-7.72-.91-10.73s7.78-.79,10.5,1.4c3.37,2.72,5.76,6.13,9.87,7.79,1.1.44,1.64-1.22.76-1.81-5.56-3.77-11.07-12.67-18.88-10.68-7.29,1.85-5.74,10-2.68,14.82.53.84,1.86.07,1.34-.78Z"/><path class="cls-3" d="M447,226.85c-1.59,19.64-2.28,39.26-5.14,58.79q-2.08,14.17-5.23,28.16c-.86,3.82-1.41,7.72-2.36,11.52-.59,2.37-1.32,5.59-3.93,6.5-1.56.54-3.62.09-5.28.37a1.28,1.28,0,0,0,0,2.45c2.73.57,6.18.81,8.5-1.07,2.61-2.12,3.35-6.28,4-9.36,2.06-10.51,4.19-21,5.75-31.63,3.17-21.58,5.17-43.92,3.78-65.73a0,0,0,0,0,0,0Z"/><path class="cls-3" d="M326.64,404.25c-6.51,16.1-10.6,33.37-15.87,49.91a1.36,1.36,0,0,0,.93,1.64l15.9,5.48c5,1.72,9.73,3.91,14.7,5.68,10,3.57,20,7.31,30.29,10.23,2.5.71,3.28-2.83,1-3.77-9.84-4.14-20-7.37-30.18-10.65-5-1.61-10.07-2.72-15.07-4.35l-16-5.19.93,1.64c5-16.54,10.8-33.49,13.39-50.59a0,0,0,0,0-.09,0Z"/><path class="cls-3" d="M379,427.82c-1.63,6.68-2.36,13.58-3.27,20.39-1.22,9.19-2.48,18.38-2.9,27.65-.06,1.34,2.15,1.69,2.38.32,1.47-8.8,2.28-17.67,3.05-26.55.63-7.21,1.5-14.52,1.12-21.76a.19.19,0,0,0-.38-.05Z"/><path class="cls-3" d="M379.92,425.41c-.84,9.33-.1,19,.08,28.32.18,9.62.41,19.24.82,28.85a1.66,1.66,0,0,0,1.63,1.63c11-.24,22.15.47,33.08-1.09,2.45-.35,1.68-4-.56-4.13-10.84-.6-21.74,1.23-32.52,2l1.63,1.63c-.88-9.85-1.53-19.71-2.07-29.58-.49-9.13-.39-18.59-2-27.59,0,0-.06,0-.06,0Z"/><path class="cls-3" d="M433.13,330.73c-.55,13.33.5,26.8,1.24,40.11.74,13.48,1.54,27,2.32,40.43s1.62,26.9,2.42,40.34c.39,6.54.77,13.08,1.1,19.62.09,1.85.66,3.64-.74,4.93-1.06,1-1.25.7-2.46.89-1.71.27-3.53.22-5.26.32-9.09.54-18.18,1.12-27.22,2.22-2.57.31-2.72,4.27,0,4.14,8.77-.41,17.53-.87,26.28-1.61,3.3-.28,8.06.08,11.07-1.46,4.56-2.33,2.53-9.4,2.23-13.34-2.28-29.51-4.2-59.05-6.38-88.57-1.18-16-1.85-32.23-4.53-48,0,0-.06,0-.06,0Z"/><path class="cls-3" d="M403.35,93.6c-1.91,4.67-.39,9-1.81,13.82-.18.63-.51,1.33-1.15,1.48-.84.19-1.51-.69-1.88-1.47-1.5-3.12-2.35-6.5-3.65-9.71s-3.14-6.35-6.06-8.22c-4.82-3.1-10.63-1.89-15.94-1.28a49.32,49.32,0,0,1-19-1.4,40,40,0,0,1-10.56-5A11.46,11.46,0,0,1,340.18,79c-4.26-5.92-.56-13.64,3.82-18.23s10.21-7.65,16.13-9.65c8.24-2.79,17.56-3.75,26-1.87,10.46,2.32,21.69,7.69,26.7,17.15,5.74,10.84,14.74,52.13-9.84,76.07l.67-13.27,1.82-7.45,6.23-9.73,2.74-12.16-1.22-2.58L410.69,95l-4-.15Z"/><path class="cls-3" d="M403,93.49a20.62,20.62,0,0,0-1.2,5.59c-.11,1.36-.07,2.73-.19,4.09-.05.57-.44,4.36-2.39,3.87-1-.26-2.48-6.89-2.95-8.17a27.78,27.78,0,0,0-2.69-5.75c-4.6-7.05-11.9-6.89-19.44-6-10.33,1.18-20.93,0-29.76-5.88-12.09-8.06.47-21.36,8.89-25.9,16.89-9.09,42.31-8.05,55.57,7.25,7,8.11,8.65,21.36,9.19,31.62.91,17.26-3.31,34.92-15.86,47.4l2.17.9c.27-5.25.15-11,1.28-15.55.76-3.07,1-4.44,2.55-6.84s3.63-4.79,4.73-7.37c.93-2.17,1.15-4.88,1.66-7.19.45-2,1.47-4.45,1-6.5a8.6,8.6,0,0,0-4.48-5.2c-1.08-.41-2.54.06-3.66-.12a19.67,19.67,0,0,1-3.72-1.18c-1.32-.49-1.88,1.61-.58,2.1A27.8,27.8,0,0,0,406.44,96c1.18.26,2.47,0,3.64.22q.95.12-.1-.19l.86.78A17.6,17.6,0,0,1,412.25,98a9.45,9.45,0,0,1,.84,1.79c.61,1.41.17-.73.13-.06-.17,2.85-1.37,6-2,8.76a12.39,12.39,0,0,1-2.27,5.46c-1.44,2.25-3.45,4.62-4.52,7.08a34.26,34.26,0,0,0-1.83,7.22c-.83,4.59-.61,9.52-.83,14.19a1.29,1.29,0,0,0,2.17.9c12.49-12.49,17.13-30,16.56-47.28-.41-12.23-2.34-27.88-11.6-36.87C394,44.81,369,43.93,351.51,53.71c-7.2,4-15.63,12-14.16,21.19,1.52,9.48,15,13.23,23,14.25,6.85.87,13.25-.62,20-.73,9.07-.15,12.45,6.16,15.17,13.71.64,1.77,2.34,9.15,5.58,7.13,1.26-.79,1.36-2.66,1.53-4,.51-3.93-.15-7.7,1.08-11.56C403.91,93.2,403.14,93,403,93.49Z"/><path class="cls-3" d="M358.11,101.79c.62,3.48-.34,6.63-1.36,9.9-.49,1.58-1.35,3.39-.8,5,1.07,3.24,5.21,2.86,7.87,3.17,1.23.14,1.42-1.8.29-2.12-1.3-.36-2.76-.19-4-.6-3.32-1.1-1.65-4.42-1.08-6.74.76-3.05,1.15-5.92-.06-8.9a.44.44,0,0,0-.85.23Z"/><path class="cls-3" d="M346.31,103.67a1.51,1.51,0,0,0-.35,1.69,1.57,1.57,0,0,0,1.46,1,1.25,1.25,0,0,0,1.11-.64,3.5,3.5,0,0,0,.3-1.54,1.46,1.46,0,0,0-1.42-1.42,1.86,1.86,0,0,0-1.92,2.45,1.45,1.45,0,0,0,1.2,1,1.42,1.42,0,0,0,1.44-.69q.12-.24-.13.07-.41.38.16-.09l.25-.32q.43-.88-.28.2l-1.72-.22a.49.49,0,0,1-.2-.54l0,.08,1.24-.94q1,.16.76,1.31a1.18,1.18,0,0,0-.31-1.53,1.2,1.2,0,0,0-1.56.09Z"/><path class="cls-3" d="M372,102.12a2.14,2.14,0,0,0,0,3,1.4,1.4,0,0,0,1.4.37,2.12,2.12,0,0,0,1.15-.93,2.14,2.14,0,0,0,.18-1.57,2.82,2.82,0,0,0-.23-.57c-.06-.12-.28-.34-.29-.39l.29.5-.16-.37a1.7,1.7,0,0,0-2-.7,1.49,1.49,0,0,0,0,2.87c-.36-.1-.26-.11-.11,0s1.25.37.51.17l-.66-.38c.16.16-.1-.18-.14-.23s-.06-.14,0-.07,0,0,0-.2c0,.2,0-.13,0-.17a.64.64,0,0,1,.28-.4q.33-.27.12-.15l1.74.22q-.17-.17,0,0l-.29-.38a.37.37,0,0,1,.13.21q-.05-.2,0,0a1.12,1.12,0,0,0-.69-1,1.11,1.11,0,0,0-1.22.23Z"/><path class="cls-3" d="M366.16,126.15a11,11,0,0,0,12.35-.18c3.09-2.25,5.11-6.57,3.87-10.31-.18-.53-1.13-.67-1.23,0-.43,3-1,5.83-3.29,8.06-2.93,2.83-7.46,3-10.93,1.14a.76.76,0,0,0-.76,1.3Z"/><path class="cls-3" d="M344.16,96.43a4,4,0,0,1,3.79.75,5.43,5.43,0,0,1,1.38,3.36,1.06,1.06,0,0,0,2.06.28,4.75,4.75,0,0,0-2.05-5.45,5.21,5.21,0,0,0-5.67-.09.63.63,0,0,0,.49,1.15Z"/><path class="cls-3" d="M367,97.58a6.63,6.63,0,0,0,8.64-1.6,1.26,1.26,0,0,0,.19-1.48,1.13,1.13,0,0,0-.73-.56,1.21,1.21,0,0,0-1.19.31,7.81,7.81,0,0,1-6.73,2.66c-.37,0-.45.49-.18.66Z"/><path class="cls-3" d="M320.62,130.93c-6.32,5.19-12.56,10.47-18.84,15.7q-4.61,3.84-9.28,7.62c-1.19,1-2.56,1.84-3,3.38-.66,2.17.39,5.05.85,7.14a91.1,91.1,0,0,0,2.89,10.13,89.81,89.81,0,0,0,8.11,17.23,87.85,87.85,0,0,0,25.27,26.38c8.17,5.57,19.64,9.38,29.57,7.63,1.76-.31,1.73-3.2,0-3.53-5-1-10.18-.65-15.22-1.92a40.61,40.61,0,0,1-12.38-5.55,83.69,83.69,0,0,1-23.69-23.54,89.78,89.78,0,0,1-11.35-25c-.59-2.11-2.18-5.72-1.72-8s5.2-5.14,6.84-6.58c2.28-2,4.52-4.07,6.76-6.12,5.25-4.82,10.38-9.77,15.52-14.71.2-.2-.09-.48-.3-.3Z"/><path class="cls-3" d="M297,151.43c-3.47-21.37-7.06-42.41-8-64.08l-3,.41.78,2.57A1.15,1.15,0,0,0,289,90V87.34c0-2-3.17-2-3.1,0,.74,21.58,2.92,43.88,9.4,64.57a.91.91,0,0,0,1.75-.48Z"/><path class="cls-3" d="M297,85.34c2.2,9,4.56,18,7,27q1.73,6.4,3.56,12.78c1.19,4.14,2,9.17,4.38,12.78.75,1.12,2.76.79,2.69-.73-.18-4.15-2.22-8.32-3.49-12.26q-2.15-6.67-4.17-13.39c-2.7-8.89-5.29-17.81-8.25-26.62a.88.88,0,0,0-1.7.47Z"/><path class="cls-3" d="M284.9,85.27a.19.19,0,0,0,0-.39.19.19,0,0,0,0,.39Z"/><path class="cls-3" d="M288,85.33c-5.16-.09-9.3-5.92-10.14-10.5-.48-2.59-1.36-7.32.82-9.39,1.7-1.62,6-2.44,8.3-3,3.35-.79,7.65-1.92,9.77,1.59,1.22,2,2.58,5.47,2.47,7.94-.14,2.93-5.23,6.25-8.4,5-1.75-.68-3.55-3.19-4.39-4.76a1.37,1.37,0,0,0-2.53.69,9.88,9.88,0,0,0,5.65,7.85c3.24,1.31,8.25-.68,10.84-2.74,3.29-2.63,2.47-6.9,1.36-10.45-1.18-3.79-3-8.43-7.39-9.21-4.61-.82-10.65,1.44-14.77,3.21s-5.34,3.69-5.16,8.29C274.7,77.23,278.66,88,288,87.11a.89.89,0,0,0,0-1.78Z"/><path class="cls-3" d="M296.37,79.9a25.4,25.4,0,0,0,1,7.17c.19.88,1.72.71,1.61-.22-.29-2.35-1-4.61-1.26-7a.67.67,0,0,0-1.34,0Z"/><path class="cls-3" d="M374.72,174.72c-1.13,3.25,1.29,6.91,3.9,8.72,4.71,3.29,11.93,3.45,17.37,2.72a27.35,27.35,0,0,0,12.53-5c3-2.08,6.68-4.49,7.77-8.16a1.41,1.41,0,0,0-2.34-1.36c-3.83,3.55-8.21,7.49-13.1,9.51a29.45,29.45,0,0,1-13,1.9c-4.54-.31-12.35-2.26-12.46-8.21a.32.32,0,0,0-.64-.09Z"/><path class="cls-3" d="M366.49,176.07c-6.72,15.13-8,31.45-10.23,47.64-.15,1.09,1.51,1.55,1.66.46,2.25-16,3.41-32.27,10.06-47.23.45-1-1-1.88-1.49-.87Z"/><path class="cls-3" d="M368.32,176.74c.63-.23,4.29-1.44,4.7-.7.32.59-.58,2.57-.74,3.23-.76,3.1-1.34,6.25-2,9.37-.84,4-1.74,8-2.52,11.94-.4,2.06-.41,3.49.88,5.21,3.23,4.33,10.15,5.31,15.1,6,6.71.88,13.46.52,20.2.43a1.63,1.63,0,0,0,0-3.27c-7.25-.35-14.7-.07-21.86-1.44-2.86-.55-8.72-1.39-10.55-3.92-2-2.82.62-10.29,1.2-13.45.62-3.39,1.15-6.82,1.88-10.19.28-1.3,1.09-3.11.56-4.45-1.22-3.09-5.25-.06-6.86,1.25,0,0,0,0,0,0Z"/><path class="cls-3" d="M424,174.8c-10,8.67-17.41,23-21,35.66-.43,1.54,2,2.66,2.66,1.12,2.79-6.28,5.08-12.74,8.21-18.88s7.22-11.68,10.17-17.85a0,0,0,0,0-.08-.06Z"/><path class="cls-3" d="M421.64,176c2.59,1.73,4.79,3.78,7.66,5l-.23-1.81c-6.59,6.46-10.76,15.12-14.35,23.5-.58,1.35,1.4,2.52,2,1.16,3.5-8.19,7.55-16.72,14-23a1.16,1.16,0,0,0-.23-1.81c-2.85-1.25-5.09-3.33-7.66-5-1.24-.82-2.39,1.17-1.16,2Z"/><path class="cls-3" d="M426.56,274.25c4,5.22,9.83,8,16.2,9.07a1.49,1.49,0,0,0,.79-2.87c-5.62-2.29-11.45-3.27-16.75-6.43-.14-.08-.34.09-.24.24Z"/><path class="cls-3" d="M444.58,281.17a70.37,70.37,0,0,1,6.67-7.33c2-1.89,7.57-7.34,10.43-5.81,1.62.87,1.24,1.24.55,2.91a9.47,9.47,0,0,1-1.46,2.39,13.82,13.82,0,0,1-4.13,3.43c-3.61,2-7.79,2.83-11.74,3.87-2.7.71-1.49,4.45,1.12,4.07,6-.87,12.09-2.41,16.51-6.8,2.82-2.8,6.36-8.75,3.44-12.6s-8.47-.64-11.4,1.56a32.83,32.83,0,0,0-10.94,13.58c-.24.56.48,1.32.95.73Z"/><path class="cls-3" d="M442.8,282.71c3.82,7.76.77,16.82,6.5,24,4.45,5.56,12,8.46,18.91,6.18,1.49-.5,1.31-2.87-.38-2.84-7.07.15-14.5-2.74-17.88-9.32-3.05-5.94-2.12-13.05-6.94-18.16-.11-.11-.27,0-.2.16Z"/><path class="cls-3" d="M349,287.17c-3.19,9.1-4.8,18.89-7.23,28.22-2.59,9.94-5.34,19.84-8.47,29.63-6.13,19.2-13.28,38.25-23.54,55.66a2,2,0,0,0,1.19,2.93c29.66,11.91,60.18,24.05,92.14,27.92,2.47.3,3-3.85.59-4.35C372.27,420.66,342.09,411,312,399.77l1.19,2.93c9.84-17.71,17.2-36.78,23-56.17q4.49-15.11,7.89-30.5c2.06-9.39,4.59-19.21,5-28.85,0,0,0,0,0,0Z"/><path class="cls-3" d="M357.55,217.49c-1.54,4.67-1.65,10.09-2.23,14.95-.69,5.82-1.34,11.65-2.07,17.46-1.4,11.19-3.92,22.41-4.5,33.69a1.48,1.48,0,0,0,2.9.39c2.6-10.86,2.93-22.35,4-33.43.59-6,1.19-12.07,1.62-18.12.34-4.82,1.14-10.15.28-14.95,0,0,0,0,0,0Z"/><path class="cls-3" d="M426.56,281.23c3.1,5.51,12.07,9.05,18.08,7.16,1.5-.47,1.3-2.9-.38-2.84a33.82,33.82,0,0,1-17.64-4.38,0,0,0,0,0-.06.06Z"/><path class="cls-3" d="M426.66,274.5c-1.48,12.87-1.67,25.89-2.86,38.8q-1.83,19.87-5,39.59c-4.15,25.63-10.57,50.5-17.47,75.5-.8,2.9,3.58,4.08,4.49,1.24,8-25,13-51.36,16.51-77.36q2.53-18.64,3.78-37.42c.87-13.34,1.86-27,.64-40.34a0,0,0,0,0-.1,0Z"/><path class="cls-4" d="M359.58,308.23c-4-.81-17.79-4.28-21.8-5.09-.62-.13-1.38-.21-1.8.26a1.83,1.83,0,0,0-.34.75q-3.6,13.2-6.19,26.65c-.69,3.55-1.31,7.28-.19,10.72,1.63,5,6.75,8.28,12,9.1s10.51-.38,15.58-1.84"/><path class="cls-3" d="M359.63,308.15c-6-2.62-12.74-4.21-19.11-5.85-2.39-.61-4.8-1.45-6.21,1.07-1.22,2.2-1.57,5.25-2.22,7.68q-1.18,4.4-2.24,8.84c-2.1,8.75-6.52,20.37.8,27.84,7.16,7.31,17.88,5.57,26.63,2.79a1.81,1.81,0,0,0-1-3.49c-7.63,1.89-18.54,3.76-23.81-3.88-2.86-4.14-1.55-9.49-.71-14.06s1.73-9,2.73-13.42q.66-3,1.37-5.93a29,29,0,0,1,.9-3.69c.48-1.23,0-1.14,1.09-1.4,1.7-.41,5.38,1.07,7.06,1.4,4.79.92,9.73,2.29,14.64,2.28.09,0,.14-.14,0-.18Z"/><path class="cls-4" d="M410.62,319.33c-4-.78-17.78-4.1-21.79-4.88-.62-.12-1.38-.2-1.8.26a1.74,1.74,0,0,0-.34.73q-3.61,12.71-6.22,25.65c-.69,3.42-1.31,7-.2,10.32,1.63,4.82,6.74,8,11.95,8.75s10.51-.37,15.58-1.79"/><path class="cls-3" d="M410.67,319.24c-5.93-2.54-12.49-4-18.73-5.57-2-.5-4.64-1.58-6.23.26-1.41,1.62-1.71,5-2.28,7q-1.26,4.48-2.4,9c-2.15,8.53-6.78,20.24.63,27.46s17.86,5.38,26.63,2.67a1.81,1.81,0,0,0-1-3.49c-7.39,1.76-17.65,3.59-23.34-3-3.43-4-2-9.57-1.14-14.24q1.25-6.49,2.75-12.92c.56-2.4,1.27-10,3.9-10.34,1.95-.28,5,1,7,1.32,4.63.85,9.42,2.11,14.15,2,.09,0,.14-.14,0-.18Z"/><path class="cls-3" d="M348.31,172.87A159.81,159.81,0,0,0,337,194.35c-3.11,6.91-7.25,14.5-8.8,21.91-.6,2.9,3.55,5.07,5,2.13,3.4-6.68,5-14.6,7.65-21.64,2.89-7.67,6.3-15.11,9.63-22.6a1.27,1.27,0,0,0-2.2-1.28Z"/><path class="cls-3" d="M332.51,162.42c-5.92,4-9.82,10.07-13.73,16-2.15,3.24-4.26,6.52-6.21,9.89-1.79,3.09-4.11,6.4-5,9.89-.49,2,2.2,4,3.75,2.18,2.24-2.57,3.6-5.9,5.28-8.86,1.91-3.38,3.83-6.76,5.84-10.09,3.71-6.13,8-11.9,10.37-18.72a.24.24,0,0,0-.35-.27Z"/><path class="cls-3" d="M434.85,261.3c1,1.2,2.8,1.52,4.26,1.84a19.35,19.35,0,0,0,5,.54,2.38,2.38,0,0,0,0-4.77c-1.46-.12-2.94-.07-4.41-.18s-2.88-.54-4.17,0a1.58,1.58,0,0,0-.68,2.59Z"/><path class="cls-3" d="M425.61,298.73a28,28,0,0,0,14.1,3.83c3,.11,3-4.76,0-4.7a71.55,71.55,0,0,1-13.16-1.33,1.21,1.21,0,0,0-.93,2.21Z"/><path class="cls-3" d="M373.35,180.28c-.63,10.8,10.67,12.81,19.24,12.92,6.38.08,12.14-2.11,17.46-5.5,4.34-2.76,11-6.18,12.72-11.39a1.41,1.41,0,0,0-2.34-1.36c-3.18,3.57-7.36,6.13-11.37,8.68-4.43,2.83-9.05,5-14.35,5.55-8.26.8-18.29.15-21.31-8.92a0,0,0,0,0,0,0Z"/><path class="cls-4" d="M229.15,289.94c2.86,2.1,5.7,1.07,9,.81,3.81-.29,7.59-.65,11.42-.66a84.18,84.18,0,0,1,12,.79c4.23.6,8.32,2,12.57,2.34,3.77.31,5.61-5.85,2-7.38-7.92-3.35-18.07-3.21-26.54-2.61a86.29,86.29,0,0,0-12.23,1.57c-3.38.74-6.55,1.4-8.36,4.64-.1.18.19-.08.35,0Z"/><path class="cls-3" d="M274.43,295l-.41,0a53.19,53.19,0,0,1-7.4-1.31c-1.73-.39-3.52-.8-5.28-1a82.83,82.83,0,0,0-11.63-.77h-.1c-3.09,0-6.23.25-9.27.49l-2,.16c-.66,0-1.33.14-2,.22-2.66.34-5.41.7-8.22-1.36l-1.17-.86.23-.45-.26-.31.59-1.09c2.17-3.88,5.83-4.68,9.37-5.46l.13,0a89.33,89.33,0,0,1,12.47-1.61c8.32-.59,18.95-.81,27.34,2.74a5.12,5.12,0,0,1,2.82,6.21A5.52,5.52,0,0,1,274.43,295Zm-24.72-6.59a86.29,86.29,0,0,1,12.12.81c1.89.27,3.75.69,5.55,1.1a50,50,0,0,0,6.92,1.23c1,.08,1.76-.9,2-1.86.1-.4.33-1.73-.81-2.21-7.72-3.27-17.81-3-25.75-2.48a86,86,0,0,0-12,1.54l-.13,0c-2.51.55-4.61,1-6.08,2.43h0l-.13.26a9.79,9.79,0,0,0,4.47,0c.69-.09,1.4-.18,2.15-.24l2-.16c3.11-.25,6.32-.5,9.54-.5Z"/><path class="cls-3" d="M229.43,288c-14.66-10.35-33.48-15.27-51.25-16.33-6.58-.39-13.36-.8-19.92,0-5.57.71-12.73,1.7-17.23,5.22-15.76,12.3,11.17,26.84,20.76,31.08,16.2,7.15,34.09,9.77,51.71,9.68,8.57,0,19.28-.56,24-9.07,4.45-8.05-1.79-15.92-8-20.61-1.77-1.33-3.5,1.66-1.74,3,6.77,5.09,11.75,14.67,2.49,20.3-6.61,4-15.94,3.13-23.38,2.86-15-.54-30.13-3.21-43.87-9.38-6.5-2.92-13.29-6.61-18.55-11.49-2.74-2.54-6.35-7-3.95-10.87,2.08-3.33,5.73-4.48,9.28-5.4,9.8-2.53,19.38-2.51,29.44-1.81,16.88,1.18,34.62,6,48.54,15.79C229.51,292.25,231.23,289.26,229.43,288Z"/><path class="cls-3" d="M136.25,284.34c.15,21.12,18.1,34.6,36.94,39.6,10.79,2.86,23.12,4.34,34.22,2.94,10.59-1.34,18.73-7.26,26.65-14,1.69-1.44-.76-3.87-2.44-2.44-7.63,6.52-15.43,12.15-25.68,13.19-9.95,1-20.82-.26-30.5-2.64-17.77-4.39-35.61-16.5-35.75-36.62,0-2.22-3.46-2.22-3.45,0Z"/><path class="cls-4" d="M143.2,292.66a51,51,0,0,1-1.38-20.8,7.07,7.07,0,0,1,1-3.08,2.66,2.66,0,0,1,2.81-1.2,3.76,3.76,0,0,1,2,2.06,33.28,33.28,0,0,1,2.34,5.66c.51,1.67,1,3.55,2.55,4.41.74.42,1.63.52,2.39.9,2.55,1.28,3.07,5.29,5.83,6"/><path class="cls-3" d="M142.31,292.91a52.12,52.12,0,0,1-1.41-21.18,8,8,0,0,1,1.13-3.48,3.55,3.55,0,0,1,3.83-1.55,4.58,4.58,0,0,1,2.51,2.51,34.3,34.3,0,0,1,2.41,5.82l.07.24c.45,1.48.92,3,2.05,3.64a5.53,5.53,0,0,0,1.08.41,7.72,7.72,0,0,1,1.27.47,8.18,8.18,0,0,1,3,3.3c.8,1.27,1.49,2.37,2.61,2.67l-.48,1.78c-1.82-.49-2.81-2.07-3.69-3.47a6.77,6.77,0,0,0-2.31-2.63,6.3,6.3,0,0,0-1-.36,7,7,0,0,1-1.44-.56c-1.77-1-2.37-3-2.91-4.7l-.07-.23a32.41,32.41,0,0,0-2.28-5.5c-.36-.69-.82-1.43-1.42-1.61a1.78,1.78,0,0,0-1.78.84,6.33,6.33,0,0,0-.82,2.69,50.27,50.27,0,0,0,1.36,20.43Z"/><path class="cls-4" d="M370.67,284.34a57.83,57.83,0,0,1-26.81,10.45c-3.14.42-5.87,1.54-9,2.08-2.52.44-5.08.63-7.6.88-6,.6-12,.91-18,1.56-9.05,1-18.33,2.08-27,4.87-5.51,1.76-11,4.1-16.82,3.8a19.22,19.22,0,0,1-16.45-11.8,1.79,1.79,0,0,1-.18-.91,1.7,1.7,0,0,1,.72-1c5.52-4.37,13.63-.63,20.6-1.62,2.83-.4,5.47-1.61,8.2-2.45,6.7-2.06,13.86-1.91,20.87-1.74a129.79,129.79,0,0,0,64.35-15.74"/><path class="cls-3" d="M370.09,283.35a59,59,0,0,1-21.19,9.4,199.27,199.27,0,0,1-24.63,4.14c-8.16.72-16.31,1.29-24.43,2.4-8.63,1.18-16.55,3.58-24.85,6.06-8.7,2.6-18.06,1.55-23.42-6.6-3.16-4.81,2.77-5.6,6.48-5.47s7.22.92,10.86.65c3.4-.25,6.46-1.64,9.68-2.61a49.07,49.07,0,0,1,13.78-1.78c7.89-.09,15.66.21,23.52-.69a130.59,130.59,0,0,0,48.2-15.13c1.3-.71.14-2.7-1.16-2A127.91,127.91,0,0,1,310.48,287c-8.82.62-17.74-.48-26.51.76-4.24.6-8,2.28-12.11,3.3-4.43,1.11-8.76.16-13.22-.08-3.29-.18-12.17.38-10.76,5.61,1.69,6.22,8.88,11,14.84,12.18,8.34,1.62,16.32-2.76,24.18-4.77,9.73-2.49,19.86-3.45,29.85-4.24,5.28-.42,10.58-.76,15.84-1.43,4.38-.56,8.58-1.94,12.94-2.65a62.25,62.25,0,0,0,25.72-10.36c1.21-.84.06-2.83-1.16-2Z"/><path class="cls-3" d="M301.88,70.57q7.94-2.5,16-4.44c1-.25,2.92-1.08,4-.92l0-.34.61.72c1.19.74,2.23,2.6,3.16,3.67l.46-1.74c-8.83,2.34-17.46,5.3-26.18,8a.82.82,0,0,0,.43,1.57c8.91-2,17.49-5.15,26.3-7.56a1.06,1.06,0,0,0,.46-1.74l-3.9-4.46a1,1,0,0,0-1-.26c-7,1.59-13.88,3.91-20.74,6.06-.92.29-.53,1.74.4,1.45Z"/><path class="cls-4" d="M285.52,75c-7.68,2.36-15.3,4.15-23,6.47-3.7,1.12-6.41,1.94-10.74,3.13-2.84.78-6.05,1.79-8.92,2.68-1.45.45-3.19,1.37-4.7,1.41-3.55.11-6.85-3-10.32-3.52s-7.07.86-10.38,2.25L202.7,93.67A2.61,2.61,0,0,0,201.06,95a3.1,3.1,0,0,0,.15,1.58,80.82,80.82,0,0,0,4.88,15.51,2.74,2.74,0,0,0,.94,1.53,2.51,2.51,0,0,0,1.85,0L223.33,110c3.87-1,7.81-2,11.24-4A14.85,14.85,0,0,0,241,99c.47-1.2.14-2.57.76-3.65.74-1.3,4.12-2.23,5.44-2.64,3.87-1.19,6.31-2,10.18-3.24,3.23-1,6.45-1.35,9.71-2.41q11.63-3.8,23.39-7.18"/><path class="cls-3" d="M285.36,74.45a344.5,344.5,0,0,0-44,11.92c-4.3,1.48-6.9-.37-10.85-1.85a13.63,13.63,0,0,0-8.32-.31c-3.54.89-6.92,2.61-10.27,4S203.86,90.67,201,92.9c-1.38,1.07-1.48,2.07-1.29,3.67a50.93,50.93,0,0,0,2.77,10.35c.75,2.15,1.35,5.19,2.7,7,1.5,2.05,3.45,1.48,5.65,1,7-1.53,14.46-3,21.09-5.73,5.52-2.28,9.4-5.76,11.06-11.49,1-3.47,6.64-4,9.74-5.06,3.75-1.23,7.47-2.25,11.31-3.15,9-2.12,18-5.48,26.77-8.44a1.27,1.27,0,0,0-.67-2.44c-6.93,1.67-13.77,3.77-20.56,5.92-6.25,2-12.65,3.3-18.91,5.29-3.12,1-8.94,1.68-10.55,5-.64,1.34-.49,3-1.1,4.32a11.34,11.34,0,0,1-3.51,4,26.22,26.22,0,0,1-9.38,4.21c-3.23.89-6.49,1.63-9.74,2.46q-2.16.55-4.32,1.13c-2.61.71-3.69,1.6-5.07-1.08a46.1,46.1,0,0,1-2.78-7.73c-.38-1.27-.72-2.54-1-3.83-.68-2.87,0-3.29,2.5-4.36q4.79-2,9.58-4.07c3.8-1.61,8.08-3.95,12.33-3.28,2.84.45,5.15,2.33,7.89,3.07s4.65,0,7.2-.89c14.12-5,29.16-7.57,43-13.25a.58.58,0,0,0-.31-1.12Z"/><path class="cls-3" d="M418.75,193.82c-6.4,14.55-12.88,29.73-24,41.41C384,246.56,369.89,254.58,354.35,257c-1.14.18-1.05,2,0,2.22s2.41,3.23,3,4.1c1,1.52,1.84,3.08,2.78,4.61,3.72,6.06,7.25,12.24,10.95,18.32,1.73,2.84,3.38,5.75,5.17,8.56a10.24,10.24,0,0,0,3.46,3.82c4.12,2.21,9.82-1,13.59-2.74,23.17-10.46,45.64-31.21,52.21-56.44,5.17-19.87,4-49.41-15.54-61.52-9.24-5.73-23.65-8-25.77-20.81-.78-4.69-.5-9.7-.71-14.45a61.6,61.6,0,0,1,1.2-14.05,32.28,32.28,0,0,1,2.12-7.62c1.07-2.3,2.87-4.25,4.23-6.38,2.6-4.11,5.38-9.3,4.65-14.35C415,95.85,411,91.78,406.41,93a8.88,8.88,0,0,0-2.75,1.28c-.89.64-1.39,2-2.18,2.54-3.86,2.54-4.67-7.27-6.21-9.41-.85-1.19-2.85,0-2,1.16,2.35,3.28,1.09,9.92,6,11.29a3.38,3.38,0,0,0,3.2-.6c.7-.56.86-1.49,1.46-2.1,2.7-2.73,7.05-2.38,8.8,1.24,2.56,5.32-1.76,12.06-4.64,16.37-2.19,3.27-3.94,5.89-4.93,9.75-2.22,8.65-1.92,17.07-1.73,25.88.16,7.71,1.5,13.66,7.64,18.84,4.66,3.93,10.06,5.89,15.51,8.41A31.3,31.3,0,0,1,438,189.11c6.2,9.52,7.89,21.45,7.53,32.6a70.17,70.17,0,0,1-12.39,38.36c-7.66,11.1-17.93,20.06-29.25,27.29a98.76,98.76,0,0,1-9.81,5.57c-3,1.44-9,4.92-12.53,4-2.81-.73-4.36-4.91-5.72-7.16-2.17-3.59-4.38-7.16-6.51-10.77q-4.36-7.41-8.8-14.77c-1.14-1.89-3.14-6.68-5.61-7.25v2.22c15.47-2.39,29.57-10.3,40.5-21.4,11.79-12,18.6-27.66,25.27-42.81.59-1.34-1.39-2.51-2-1.16Z"/><path class="cls-3" d="M392.79,238.93c.16,3.09,2.25,6,3.75,8.66,2.14,3.73,4.2,7.52,6.17,11.34q2.8,5.42,5.26,11c1.69,3.87,2.83,8.27,5.06,11.85,1.37,2.21,4.43.7,4-1.69-.66-3.8-2.83-7.72-4.45-11.21q-2.72-5.84-5.84-11.49c-2-3.56-4.07-7-6.35-10.4-2-2.89-4.14-6.73-7.43-8.17a.13.13,0,0,0-.19.11Z"/><path class="cls-3" d="M405.47,224.32c3.94,6.91,8.56,13.28,12.15,20.43,1.88,3.75,3.69,7.53,5.51,11.3,1.73,3.59,2.93,7.93,6.14,10.4,1.24,1,2.93-.36,3-1.69.07-3.92-2.89-7.9-4.68-11.29q-3.25-6.17-6.73-12.22c-3.68-6.43-7.82-14-14.43-17.85a.67.67,0,0,0-.91.91Z"/><path class="cls-4" d="M401.62,142.62c-.39-5.13,1.27-19.71,4.45-24,4.65-6.2,11.81-17.21,5.18-23.18-1-.89-5.53-2.73-7.45,1.45"/><path class="cls-3" d="M401.93,142.62c.54-6,1.13-12.11,2.82-18,1.78-6.16,6.58-10.61,9-16.51,1.85-4.43,2.61-10.43-1.66-13.82-3.27-2.59-8-1.76-9.33,2.33a1,1,0,0,0,1.71,1c1.91-2.14,4.41-2.48,6.43-.4,2.25,2.32,1.7,6.09.87,8.88-1.55,5.15-5.14,8.72-7.51,13.35-1.75,3.43-2.32,7.57-2.79,11.34s-1,8.09-.19,11.88c.08.37.58.25.61-.08Z"/><path class="cls-3" d="M404.54,95.42c-1.91,4.67-2.12,7.55-3.53,12.41-.18.63-.51,1.33-1.15,1.48-.84.19-1.51-.69-1.88-1.47-1.5-3.12-2.35-6.5-3.65-9.71s-2.91-7.28-5.82-9.15"/><path class="cls-3" d="M403.21,95.06a66.59,66.59,0,0,0-2.51,8.47c-.56,2.32-.85,5.58-2.55,1.23-.63-1.61-1.13-3.27-1.72-4.9-1.6-4.45-3.32-9.13-7.23-12.05-1.42-1.06-2.8,1.33-1.39,2.38,3.78,2.83,5.21,8.26,6.69,12.51.76,2.19,1.61,6.69,4,7.77,1.91.84,3.15-.65,3.79-2.25,1.58-4,2-8.39,3.53-12.41.64-1.66-2-2.37-2.66-.73Z"/><path class="cls-3" d="M111.55,255.19a24,24,0,0,0,13.9-14.82A17.83,17.83,0,0,0,139,255.61c-8,4.51-17,10.58-17.4,19.77a16.89,16.89,0,0,0-9.89-19.68"/><path class="cls-3" d="M225,331.57a19.3,19.3,0,0,1-10.39,10.35l-.7,1.15a15.61,15.61,0,0,1,12.58,11.06,17.35,17.35,0,0,1,9-13A15.3,15.3,0,0,1,225,331.57Z"/><path class="cls-3" d="M145.88,287.57a.1.1,0,0,0,0-.19.1.1,0,0,0,0,.19Z"/><path class="cls-4" d="M205.58,314.07a8.7,8.7,0,0,0,9.11-3.75,8.94,8.94,0,0,0-.21-9.85c-1.37-1.91-3.44-3.18-5.4-4.47-7.54-5-14.3-11-21.78-16.11s-16-9.17-25-9.46c-4.57-.14-11.93,2.11-10.52,6.46C153.66,282.75,174.77,306,205.58,314.07Z"/><path class="cls-3" d="M205.35,314.91a9.7,9.7,0,0,0,11.15-6.45c1.73-5.52-1.71-9.64-6-12.55-12.87-8.74-24.58-21-40-25.1-5.14-1.38-11.2-2.09-16.14.42-2.88,1.46-4.36,3.83-3,6.92,3,6.65,10,12.35,15.47,16.81a104,104,0,0,0,38.51,19.95.86.86,0,0,0,.46-1.66,101.77,101.77,0,0,1-35.12-17.43c-6.24-4.75-13.38-10.59-17.3-17.54s8.86-7.21,12.71-6.63c7.1,1.07,13.69,4.35,19.64,8.24,6.69,4.37,12.72,9.64,19.19,14.3,3.09,2.22,7.6,4.2,9.41,7.72a7.93,7.93,0,0,1-8.53,11.35C204.72,313.05,204.26,314.71,205.35,314.91Z"/><path class="cls-3" d="M200.63,299.84c.57.36,3.35,2.27,2.11,3.27-.38.31-1.29.12-1.71,0a7.82,7.82,0,0,1-4.37-2.29c-.53-.59-1.42-1.6-.59-2.35,1.11-1,3.66.79,4.56,1.33a.86.86,0,0,0,.87-1.49c-1.77-1.06-5.11-3-6.84-.84-1.45,1.82-.16,3.79,1.33,5.11,1.67,1.48,5,3.05,7.28,2.14a2.53,2.53,0,0,0,1.33-2.83c-.27-1.64-1.8-2.75-3.09-3.58C200.57,297.75,199.7,299.24,200.63,299.84Z"/><path class="cls-3" d="M188.68,281.17a9.33,9.33,0,0,1,1.3,4.1c.2,3.56-2.79,4.41-5.78,4.28-1.59-.07-5.55-1.53-6.17,1-.48,1.94,2.68,4.17,3.76,5.2,1.29,1.23,5.14,4.2,2.22,5.25-1.74.63-5-.25-6.6-.85-.92-.35-1.51,1.11-.66,1.58,2.14,1.19,9,2.72,10.79.26,2.28-3.2-5.18-7.12-6.23-9.16-1.33-2.61,1.3-1.79,2.9-1.75a9.8,9.8,0,0,0,3.92-.38,4.38,4.38,0,0,0,2.55-2.35c1-2.39-.07-5.53-1.94-7.19,0,0-.07,0-.05,0Z"/><path class="cls-3" d="M151,275.06c-.47,2.59-1.52,7-.55,9.49.81,2,3.05,4.31,4.51,6,2.6,3.08,6.13,5.47,9.25,8s6,4.85,9.14,7.1c5.64,4,12.54,6.82,19.13,8.92s11.77,2.83,18.13-.14c1-.47.13-2-.87-1.49-6.57,3.07-12.75,1.61-19.25-.87-5.66-2.16-11.33-4.36-16.27-7.9a192.79,192.79,0,0,1-15.88-12.64,25.69,25.69,0,0,1-5.53-6.64c-1.42-2.7-.67-6.57-.15-9.42.2-1.09-1.46-1.55-1.66-.46Z"/><path class="cls-3" d="M215.28,307.25a9.29,9.29,0,0,0,6.33,2.8c1.54.13,2.27.08,3,2.08a6.22,6.22,0,0,0,.38,1.21,2,2,0,0,0,2,1c1.11,0,1.11-1.76,0-1.72-.41,0-1-2.4-1.32-2.84a3.68,3.68,0,0,0-1.89-1.21,19.47,19.47,0,0,0-3-.37A7,7,0,0,1,216.5,306c-.78-.8-2,.42-1.22,1.22Z"/><path class="cls-3" d="M172.65,256.4c-1.71-1.83-4-.4-5.32,1.18a18.33,18.33,0,0,0-3.49,8.95.58.58,0,0,0,1,.56c.82-.7,1.31-1.59,2.13-2.29,1.07-.91,2.39-1.48,3.51-2.32,1.74-1.3,3.2-3.59,2.36-5.82-.26-.69-1.37-.39-1.11.31,1.18,3.11-2.35,4.82-4.39,6.16-1.34.89-2.12,2.13-3.31,3.15l1,.56a19.54,19.54,0,0,1,1.5-5.48c.64-1.42,3.21-6.48,5.39-4.15C172.35,257.75,173.16,256.94,172.65,256.4Z"/><path class="cls-3" d="M159.37,257.9c-1.63-.6-2.82.82-3.24,2.25a13.5,13.5,0,0,0,.58,7.83.58.58,0,0,0,1.11,0c.29-.7.35-1.38.61-2.09.4-1.07,1.17-2,1.67-3a4.26,4.26,0,0,0-.47-4.86c-.49-.56-1.3.26-.81.81,1.82,2.1-.33,4.22-1.23,6.07-.43.89-.5,1.85-.87,2.75h1.11a15.06,15.06,0,0,1-.84-4.41c0-.9,0-5,2.09-4.26C159.76,259.27,160.06,258.15,159.37,257.9Z"/><path class="cls-3" d="M168.25,246c-.92-1-2.21-.32-2.92.55a8.8,8.8,0,0,0-1.71,4.32.58.58,0,0,0,1,.56c.38-.33.62-.75,1-1.07s1.1-.68,1.61-1.06a2.78,2.78,0,0,0,1.21-3c-.26-.69-1.37-.39-1.11.31.49,1.28-1.08,2-1.91,2.54a17.27,17.27,0,0,0-1.61,1.52l1,.56a9,9,0,0,1,.67-2.49c.22-.48,1.29-2.67,2-1.88C167.94,247.35,168.75,246.53,168.25,246Z"/><path class="cls-3" d="M150.79,283.45a16.94,16.94,0,0,0,4.34,5.2c2,1.39,4.48,1.09,6.52,2.29,3.73,2.18,3.41,7.73,6.21,10.77,3.36,3.65,8.68,2.07,12.64,4.46,4.42,2.66,5.34,8.95,11.5,8.44.73-.06.74-1.21,0-1.15-5.9.49-7.28-6.74-12-8.83s-10.13-.47-12.8-6.2c-1.23-2.64-1.77-6-4.13-7.91-1.3-1.07-2.59-1.09-4.15-1.58-3.56-1.09-5.19-3-7.11-6.07-.39-.63-1.39,0-1,.58Z"/><path class="cls-3" d="M420.93,349.4a78.16,78.16,0,0,0,12.92-1.33c1.45-.27.84-2.49-.61-2.22a74.4,74.4,0,0,1-12.31,1.25,1.15,1.15,0,0,0,0,2.3Z"/><path class="cls-3" d="M424.71,359.08a16.77,16.77,0,0,0,9.74,15.24c1.34.61,2.51-1.37,1.16-2a14.51,14.51,0,0,1-8.6-13.25,1.15,1.15,0,0,0-2.3,0Z"/><path class="cls-3" d="M426,359.57a17.46,17.46,0,0,1,6.26-.52c1.47.14,1.46-2.16,0-2.3a19.3,19.3,0,0,0-6.87.6,1.15,1.15,0,0,0,.61,2.22Z"/><path class="cls-3" d="M313.35,446.91q29.37,9.15,58.47,19.12c1.4.48,2-1.74.61-2.22q-29.1-10-58.47-19.12c-1.42-.44-2,1.78-.61,2.22Z"/><path class="cls-3" d="M215.87,248a6.45,6.45,0,0,0-1.65,5.92c.73,4.62,6.39,12.48-1.7,13.86-1.09.19-.63,1.85.46,1.66a6.66,6.66,0,0,0,5.7-5.25c.91-4.9-5.7-10.68-1.58-15,.77-.8-.45-2-1.22-1.22Z"/><path class="cls-3" d="M220.79,252.46a100.36,100.36,0,0,1,.06,18.14c-.1,1.11,1.63,1.1,1.72,0a100.36,100.36,0,0,0-.06-18.14c-.1-1.1-1.83-1.11-1.72,0Z"/><path class="cls-3" d="M225.46,253.27c.95,0,4.21-.67,4.86.27.25.37-1.45,3.56-1.72,4.27q-2.08,5.37-3.79,10.88c-1.57,5.05-.21,5.61,4.8,5.49a.86.86,0,0,0,0-1.72q-1.14,0-2.28,0-2.42-.67-1.09-2.6c0-1.35,1-3.07,1.41-4.39,1.22-3.64,2.78-7.16,4-10.79,1.56-4.52-3-3.27-6.23-3.16-1.11,0-1.11,1.76,0,1.72Z"/><path class="cls-3" d="M234.06,255.4a9.58,9.58,0,0,1,3.62.45l-.52-1.27-7,15.42a.88.88,0,0,0,.52,1.27,9.71,9.71,0,0,0,6-.07c1.05-.34.6-2-.46-1.66a8.16,8.16,0,0,1-5.08.07l.52,1.27,7-15.42a.88.88,0,0,0-.52-1.27,10.55,10.55,0,0,0-4.08-.51c-1.1.07-1.11,1.79,0,1.72Z"/><path class="cls-3" d="M241.1,250.36a89.18,89.18,0,0,1-2,21.42.87.87,0,0,0,.83,1.09c1.61,0,3.18,0,4.79-.13,1.1-.07,1.11-1.79,0-1.72-1.61.1-3.18.14-4.79.13l.83,1.09a91,91,0,0,0,2.09-21.88.86.86,0,0,0-1.72,0Z"/><path class="cls-3" d="M247.29,262.16c2.73,0,7.62-1.3,6.36-5.14a3.58,3.58,0,0,0-6.12-1.2c-2.09,2.47-2.62,7.72-1.48,10.69,1,2.55,4.34,4.08,6.34,1.65.7-.85-.51-2.08-1.22-1.22-1.75,2.13-3.59-.71-3.8-2.4a13.81,13.81,0,0,1,.3-4.53,12.36,12.36,0,0,1,.38-1.46c.33-1,1.31-2.29,2.52-2.28l1.26.92-.93,2.59c-.74.75-2.65.66-3.62.66a.86.86,0,0,0,0,1.72Z"/><path class="cls-3" d="M183.75,223.63a6.85,6.85,0,0,0,.41,6.9c2.21,3.94,9,9.63,1.83,13.05-1,.48-.13,2,.87,1.49a6.65,6.65,0,0,0,4-6.62c-.48-5-8.33-8.66-5.67-14,.5-1-1-1.86-1.49-.87Z"/><path class="cls-3" d="M189.69,226.53a99.77,99.77,0,0,1,5.06,17.42c.21,1.09,1.87.63,1.66-.46a99.77,99.77,0,0,0-5.06-17.42c-.4-1-2.07-.58-1.66.46Z"/><path class="cls-3" d="M194.39,226c.89-.29,3.88-1.81,4.76-1.09.34.28-.41,3.83-.47,4.58q-.51,5.74-.64,11.5c-.11,5.28,1.32,5.46,6.12,4,1.06-.33.6-2-.46-1.66q-1.08.36-2.19.65-2.52,0-1.77-2.18c-.35-1.3.08-3.22.14-4.61.17-3.84.69-7.65.9-11.48.26-4.78-3.78-2.33-6.85-1.33-1.05.34-.6,2,.46,1.66Z"/><path class="cls-3" d="M203.25,225.71a9.58,9.58,0,0,1,3.6-.57l-.83-1.09-2.51,16.76a.88.88,0,0,0,.83,1.09,9.69,9.69,0,0,0,5.74-1.71c.92-.61.06-2.11-.87-1.49a8.18,8.18,0,0,1-4.87,1.47l.83,1.09,2.51-16.76a.88.88,0,0,0-.83-1.09,10.55,10.55,0,0,0-4.06.63c-1,.37-.59,2,.46,1.66Z"/><path class="cls-3" d="M208.63,218.91a88.69,88.69,0,0,1,4,21.15.87.87,0,0,0,1.09.83c1.55-.43,3.06-.91,4.57-1.45,1-.37.59-2-.46-1.66-1.51.54-3,1-4.57,1.45l1.09.83a90.68,90.68,0,0,0-4-21.61c-.33-1.05-2-.6-1.66.46Z"/><path class="cls-3" d="M217.83,228.56c2.62-.74,6.9-3.25,4.77-6.6a3.58,3.58,0,0,0-6.27.42c-1.37,3-.38,8.56,1.78,11,1.84,2.1,5.24,2.05,6.36-.68.42-1-1.24-1.47-1.66-.46-1.21,2.92-4-.63-4.45-2a15.35,15.35,0,0,1-.79-4.71c0-1.59.74-4.63,2.89-3.26,3.09,2-1.65,4.15-3.09,4.56a.86.86,0,0,0,.46,1.66Z"/><path class="cls-3" d="M159.74,187.4a6.4,6.4,0,0,0-2.67,5.35c-.15,4.67,4.65,13.62-3.81,13.67a.86.86,0,0,0,0,1.72,6.7,6.7,0,0,0,6.58-4.28c1.62-4.52-3.87-11.58.77-15,.89-.65,0-2.15-.87-1.49Z"/><path class="cls-3" d="M163.8,192.75A98.52,98.52,0,0,1,161,210.43a.86.86,0,0,0,1.66.46,101,101,0,0,0,2.9-18.14c.08-1.11-1.65-1.1-1.72,0Z"/><path class="cls-3" d="M168.43,194.18c.9.12,4.16,0,4.65,1,.19.36-2,3.3-2.39,3.94q-2.92,5-5.49,10.12c-2.33,4.66-1.29,5.55,3.73,6.25,1.09.15,1.55-1.51.46-1.66-2.95-.41-3.2-1.57-2.35-4.4a24.09,24.09,0,0,1,2.13-4.08c1.61-3,4.66-6.45,5.56-9.67,1-3.53-4-2.89-6.3-3.19-1.1-.14-1.09,1.58,0,1.72Z"/><path class="cls-3" d="M176.58,197.67a7.13,7.13,0,0,1,3.28,1l-.31-1.18-9.43,14.08a.87.87,0,0,0,.31,1.18,10,10,0,0,0,6.14.92c1.09-.16.63-1.82-.46-1.66a7.81,7.81,0,0,1-4.81-.74l.31,1.18L181,198.34a.87.87,0,0,0-.31-1.18,11.29,11.29,0,0,0-4.16-1.21c-1.1-.11-1.1,1.61,0,1.72Z"/><path class="cls-3" d="M184.22,193.73a89.64,89.64,0,0,1-5.52,21,.86.86,0,0,0,.6,1.06c1.66.28,3.3.51,5,.67,1.1.11,1.1-1.61,0-1.72a43.6,43.6,0,0,1-4.52-.61l.6,1.06a89.64,89.64,0,0,0,5.52-21c.15-1.09-1.51-1.55-1.66-.46Z"/><path class="cls-3" d="M188.31,206.44c2.77.45,7.81,0,7.18-4.06a3.57,3.57,0,0,0-5.85-2.13c-2.44,2.1-3.74,7.09-3.18,10.16.52,2.87,3.68,4.84,6.11,2.7.84-.73-.39-2-1.22-1.22q-2.51,1-3.17-1.55a7.1,7.1,0,0,1,0-2.65,15.85,15.85,0,0,1,.82-3.06c.35-1,1.09-3,2.17-3.38q4.09,2.75.58,3.63a7.82,7.82,0,0,1-3-.1c-1.09-.18-1.55,1.48-.46,1.66Z"/></g></svg>
