<svg id="Layer_1" data-name="Layer 1" xmlns="http://www.w3.org/2000/svg" xmlns:xlink="http://www.w3.org/1999/xlink" viewBox="0 0 595.28 446.98"><defs><style>.cls-1,.cls-5{fill:none;}.cls-2{clip-path:url(#clip-path);}.cls-3{fill:#fff;}.cls-4{fill:#231f20;}.cls-5{stroke:#231f20;stroke-linecap:round;stroke-linejoin:round;stroke-width:2.83px;}</style><clipPath id="clip-path"><path class="cls-1" d="M530.25,295.27c-28.9,99-146.54,112.85-236.71,112.85s-214.44,33.3-175.13-188c18-101.55,14.76-220.72,175.13-185.5C381.61,54,569,162.52,530.25,295.27Z"/></clipPath></defs><title>illustration</title><g class="cls-2"><path class="cls-3" d="M238.51,478.39l-7.56-4.54C183.35,265.64,261,84.18,261,84.18l21.35.76-2.47,29.47-34,130.91L234.16,291.4l.44,129.78,6.59,43.42Z"/><path class="cls-4" d="M239.5,476.69l-5.4-3.24c-.53-.32-1.78-.74-2.09-1.25.41.68.16-1.94.16-1.81-.07-1.88-.88-4-1.28-5.86q-3.23-15.18-5.66-30.52-4.87-30.58-6.64-61.55A687.64,687.64,0,0,1,221.08,263a708.27,708.27,0,0,1,32.07-151.82c2.18-6.55,4.47-13.07,6.93-19.52.66-1.72,1.33-3.44,2-5.15.17-.41.91-2.18.57-1.38l-1.69,1,21.35.76-2-2-1.83,21.83c-.21,2.51-.23,5.13-.64,7.61.2-1.19-.37,1.19-.45,1.52l-9.67,37.21Q256,198.28,244.3,243.45c-3,11.55-5.87,23.12-8.8,34.68-1.1,4.32-2.9,9-3.3,13.42-.28,3.17,0,6.5,0,9.68l.35,102.66c0,7.54-.3,15,.83,22.43l4,26.14L239,463.08c.1.65.24,1.31.3,2,0-.31.16-1.36-.08-.5s-.36,1.86-.54,2.77l-2,10.54c-.48,2.47,3.3,3.52,3.78,1,1-5.11,3.25-11,2.47-16.22-1.17-7.81-2.37-15.61-3.55-23.41l-2-13-.6-4c-.05-.35-.25-2.38-.19-1.18-.13-2.7,0-5.44,0-8.14L236.19,311l-.06-16.3c0-1-.09-2.08,0-3.1,0-.46-.14.87,0,0s.5-2,.75-2.94c3.61-14.24,7.18-28.49,10.83-42.72,6.86-26.74,13.88-53.43,20.82-80.15L280,121.64c2.51-9.67,2.84-19.42,3.67-29.39l.61-7.3a2,2,0,0,0-2-2L261,82.22a1.91,1.91,0,0,0-1.69,1c-11.09,26-18.72,53.73-25.31,81.1-15.73,65.25-22.82,132.86-19.74,199.94A637.79,637.79,0,0,0,221,432.17q2.7,17.52,6.43,34.86c.7,3.24.62,7.28,3.59,9.14,2.14,1.34,4.34,2.6,6.5,3.9S241.66,478,239.5,476.69Z"/><path class="cls-3" d="M300.2,95.66,282.33,84.95C252.47,140,240.07,188.89,231.2,244.58c-5.43,34.12-10.88,68.5-9.57,103,1.67,44.14,10.38,88.48,16.88,130.79l11.32-1.28s-27.13-103.47-3.56-231.74C262.44,157.4,300.2,95.66,300.2,95.66Z"/><path class="cls-4" d="M301.19,94,283.32,83.25a2,2,0,0,0-2.68.7c-24,44.46-39.23,92.07-48.2,141.7-4.76,26.3-9,52.89-11.42,79.52-2.52,27.94-1.28,55.69,2,83.51,3.53,30.22,9,60.16,13.63,90.22a2,2,0,0,0,1.89,1.44l11.32-1.28a2,2,0,0,0,1.89-2.48,324,324,0,0,1-6.26-32.18,593.6,593.6,0,0,1-6.83-85.25c-.74-74.64,11.88-149.2,41.23-218,6.46-15.15,13.43-30.4,22-44.49,1.32-2.16-2.07-4.13-3.39-2-7.16,11.72-13.09,24.32-18.69,36.83a505.38,505.38,0,0,0-31.4,93.73c-15.72,68.89-17.72,141.47-8,211.39,1.9,13.72,4,27.59,7.55,41l1.89-2.48-11.32,1.28,1.89,1.44c-8.2-53.26-19.69-107-16.35-161.14,1.68-27.24,6.06-54.34,10.62-81.22a568,568,0,0,1,15.92-69.81A430.49,430.49,0,0,1,284,85.94l-2.68.7,17.88,10.71C301.38,98.65,303.36,95.26,301.19,94Z"/><path class="cls-3" d="M227,488.2l-8.63-3.66c-80.79-212-25.89-414.42-25.89-414.42l22.57-2.34,1.74,31.37L200.37,241.9l-5.49,50.2,19.61,136.48,13.33,44.71Z"/><path class="cls-4" d="M228,486.51l-5.73-2.43a10,10,0,0,1-2.6-1.1c-.67-.71-1.58-4.76-2.13-6.28q-5.83-15.9-10.81-32.09-9.57-31.1-16-63a725.92,725.92,0,0,1-13.87-116.72c-2.14-55.17,1.3-110.87,11.32-165.19,1.79-9.71,3.67-19.48,6.26-29l-1.89,1.44,22.57-2.34-2-2,1.27,22.77c.2,3.52.66,7,.25,10.54L210.06,141l-11.47,99.37c-1.42,12.28-2.7,24.59-4,36.88-.55,5-1.85,10.48-1.55,15.51.2,3.33,1,6.72,1.44,10l15.5,107.88c1.15,8,1.89,15.91,4.19,23.63l8,27,3.16,10.59a14.56,14.56,0,0,1,.58,1.94c-.11-.76-.08-.14-.09.32,0,.88-.09,1.76-.14,2.64l-.6,11.49c-.13,2.52,3.79,2.52,3.92,0l.6-11.49a14.83,14.83,0,0,0-.35-5.47l-7.32-24.53c-2.7-9.07-5.41-17.58-6.75-26.9L199.75,312.33l-2.47-17.17a32.8,32.8,0,0,1-.49-3.4c0-.55,0,.8.09,0s.21-1.9.31-2.84c1.71-15.64,3.37-31.28,5.13-46.91,3.24-28.85,6.66-57.68,10-86.53l5.64-48.87c1.2-10.36.13-20.45-.45-30.89l-.44-7.9a2,2,0,0,0-2-2l-22.57,2.34a2,2,0,0,0-1.89,1.44c-7.86,29-11.73,59.51-14.63,89.35-6.87,70.72-4.31,142.56,8.73,212.44a672.28,672.28,0,0,0,17.35,71.35q5.57,18.41,12.24,36.46c1.2,3.24,1.47,6.34,4.73,7.72l7,3C228.35,490.87,230.35,487.49,228,486.51Z"/><path class="cls-3" d="M235.49,76.41,215.1,67.78c-23.29,62.33-29.13,115.6-30.24,175.5-.68,36.7-1.34,73.67,5.13,109.8,8.27,46.2,24,91.56,37.05,135.12l11.72-3s-43.81-104.86-37.93-243.31C204.87,146.94,235.49,76.41,235.49,76.41Z"/><path class="cls-4" d="M236.48,74.72l-20.39-8.63a2,2,0,0,0-2.88,1.17c-18.84,50.66-27.72,103.38-29.78,157.27-1.1,28.62-1.69,57.47-.13,86.09,1.59,29,6.94,57.38,14.28,85.48,8.14,31.18,18.29,61.78,27.57,92.63a2,2,0,0,0,2.41,1.37l11.72-3a2,2,0,0,0,1.37-2.41c-4.23-10.14-7.59-20.71-10.8-31.21a630.34,630.34,0,0,1-19.29-83.62c-12.84-79.26-11.29-160.74,9.08-238.6,3.49-13.34,7.47-26.56,12.09-39.55,1.27-3.57,2.59-7.13,4-10.65q.59-1.49,1.2-3c.32-.78,0,0,.27-.65,1-2.29-2.38-4.29-3.39-2-6.08,14-10.67,28.83-14.86,43.51a535.11,535.11,0,0,0-19.32,109.7c-5,72.62,3.65,146.87,23.76,216.79,3.9,13.57,8.06,27.25,13.5,40.29l1.37-2.41-11.72,3,2.41,1.37c-16.41-54.56-36.44-109.19-41-166.4-2.29-28.7-1.69-57.63-.92-86.38.7-26.08,2.48-52.16,6.54-77.94A459.91,459.91,0,0,1,217,68.3l-2.88,1.17L234.5,78.1C236.8,79.08,238.8,75.7,236.48,74.72Z"/><path class="cls-4" d="M287.35,302.07a8.29,8.29,0,0,0-4.29,8.54,5.59,5.59,0,0,0,6.79,4.75,6.11,6.11,0,0,0,4.47-7.07c-.6-3.78-4.1-6-7.71-6.11-1.67-.07-1.66,2.52,0,2.59,2.16.09,4.42,1.21,5.05,3.43.55,1.95-.36,4.27-2.5,4.66s-3.59-1.36-3.64-3.41a5.76,5.76,0,0,1,3.13-5.14c1.46-.8.16-3-1.31-2.24Z"/><path class="cls-4" d="M295,297.37a78.13,78.13,0,0,0,3.77,18.89c.52,1.57,3,.9,2.5-.69a75.28,75.28,0,0,1-3.68-18.2c-.12-1.65-2.71-1.66-2.59,0Z"/><path class="cls-4" d="M298.24,308a19.16,19.16,0,0,1,6.6-4.26c1.54-.59.87-3.09-.69-2.5a22.29,22.29,0,0,0-7.74,4.92c-1.19,1.17.64,3,1.83,1.83Z"/><path class="cls-4" d="M300.73,292.59l4.46,23.55c.31,1.64,2.81.94,2.5-.69l-4.46-23.55c-.31-1.64-2.81-.94-2.5.69Z"/><path class="cls-4" d="M281.23,324.88l1.66,22.26c.12,1.65,2.71,1.66,2.59,0l-1.66-22.26c-.12-1.65-2.71-1.66-2.59,0Z"/><path class="cls-4" d="M284.18,335.3l6.61-3.64c1.46-.8.15-3-1.31-2.24l-6.61,3.64c-1.46.8-.15,3,1.31,2.24Z"/><path class="cls-4" d="M286.8,322.27,290.31,337l1.64,6.9c.35,1.48.36,3.38,1.73,4.29a1.33,1.33,0,0,0,1.57-.2,1.37,1.37,0,0,0,.51-1.26,1.32,1.32,0,0,0-1-1.25l-.15,0c-1.63-.28-2.33,2.22-.69,2.5l.15,0-1-1.25.24-.57L295,346q.5.75-.07-.77l-.35-1.48-.7-3-1.52-6.4-3-12.81c-.38-1.62-2.88-.93-2.5.69Z"/><path class="cls-4" d="M291.42,322.27a191.37,191.37,0,0,0,4.54,19c.47,1.61.77,3.66,2.56,4.28,2.07.71,5.29-.52,7.36-.88,1.64-.28.94-2.78-.69-2.5s-5.06,1.63-6.17.29c-.63-.77-.83-2.79-1.11-3.76s-.61-2.2-.9-3.31c-1.21-4.58-2.22-9.2-3.09-13.86-.3-1.64-2.8-.94-2.5.69Z"/><path class="cls-4" d="M295.64,332.9l5.63-2c1.55-.57.88-3.07-.69-2.5l-5.63,2c-1.55.57-.88,3.07.69,2.5Z"/><path class="cls-4" d="M293,322a32.69,32.69,0,0,1,6.71-1.9c1.64-.28.94-2.78-.69-2.5a32.69,32.69,0,0,0-6.71,1.9c-1.53.61-.86,3.12.69,2.5Z"/><path class="cls-4" d="M302.81,322.09a39.14,39.14,0,0,1,6.42,10.31c.65,1.53,2.88.21,2.24-1.31a41.26,41.26,0,0,0-6.82-10.83c-1.09-1.26-2.92.58-1.83,1.83Z"/><path class="cls-4" d="M310.83,315.26l-2.46,33.25c-.12,1.66,2.47,1.65,2.59,0l2.46-33.25c.12-1.66-2.47-1.65-2.59,0Z"/><path class="cls-4" d="M316.5,312.2v15.85a1.3,1.3,0,0,0,2.59,0V312.2a1.3,1.3,0,0,0-2.59,0Z"/><path class="cls-4" d="M317.28,340.6a1.3,1.3,0,0,0,0-2.59,1.3,1.3,0,0,0,0,2.59Z"/><path class="cls-4" d="M259.09,493.31,251.78,490a575.49,575.49,0,0,1-2.13-145.85c2.68-23.78,6.2-49.86,13.79-72.54,7-20.88.88-34-1.22-56.89,0,0-2.46-17.05,14.17-64.42,2.05-5.84,13.61-3.41,13.61-3.41"/><path class="cls-4" d="M259.65,492.35l-3.31-1.49a20.45,20.45,0,0,1-2.58-1.16c-.19-.12-.59-.17-.74-.33-1.1-1.18.33,1.29-.38-1.16-1.13-3.89-1.16-8.64-1.63-12.68s-.91-8.16-1.3-12.25q-2.3-24.14-2.55-48.42a611.84,611.84,0,0,1,6.68-95c2.17-14.84,5-29.66,9.4-44,2-6.4,3.92-12.61,4.41-19.33a81.31,81.31,0,0,0-.83-16.95c-1.77-13-4.55-23.79-3-36.63a198.33,198.33,0,0,1,6.71-30.76q1.52-5.27,3.2-10.5,1-3.06,2-6.1c.64-1.89,1.15-4.79,2.55-6.28,2.52-2.67,8.15-2,11.41-1.36,1.4.28,2-1.86.59-2.14a23.9,23.9,0,0,0-8.52-.31c-5,.82-6.18,3.66-7.7,8.1a301.37,301.37,0,0,0-10.48,37.29c-2.09,10.26-3.1,19.93-1.77,30.27,1.76,13.64,5.31,27.3,2.88,41.09-1.31,7.42-4.2,14.51-6.11,21.8-2,7.63-3.6,15.36-5,23.12a590.67,590.67,0,0,0-8.72,98.42q-.16,28.48,2.5,56.89.68,7.28,1.55,14.54.41,3.44.87,6.87c.22,1.65,0,5.08.88,6.4,1.34,2,5.62,3,7.82,3.95,1.29.58,2.43-1.33,1.12-1.92Z"/><path class="cls-4" d="M284.41,190.79c2.76,1.24,3.88.18,5.46-2.31a23.46,23.46,0,0,0,3.16-8c2-9.55,1.76-7.58,4.73-16.9,1-3,1.91-10.11,10.31-8l-7.89,45.13-13.73-1.6-10.69-.36,8.67-8"/><path class="cls-4" d="M324.55,158c-10.77-2.65-12.18,13.51-14,21-1.69,7-.76,4.87-2.45,11.88-.72,3-2.32,5.82-5.67,5.1l-.66,7.72,13.37-8.38,11.23-23.71Z"/><path class="cls-3" d="M325.47,159.27c-8.24-2.75-10.92,15.3-12.74,23.8-1.7,8-.76,5.53-2.47,13.49-.73,3.39-3.09,6.87-6.46,6.05s-.85-14.14,2.65-25.89c2-6.64,6.54-18.25.13-20-3.35-.94-5.31,6.32-6.31,9.65-3.08,10.18-2.84,8-4.91,18.46a26.4,26.4,0,0,1-3.28,8.69c-1.64,2.71-2.8,3.87-5.67,2.52-2.14-1-3.69-1.62-.38-12.29,3.4-11,6.41-21.34,6.46-31,0-1.8,0-4.73-2.55-5.26-3.13-.65-6.89.51-8.82,8.69-5,21.33-13.51,41.77-11.59,62.62,2.1,22.79,8.89,27.79-.06,58.66-6.64,22.93-9.83,46.71-12.51,70.43a572.54,572.54,0,0,0,2.13,145.47,67.51,67.51,0,0,0,22.64-5.88c-5.28-38.45-11.87-73-11.15-117.17.67-41.62,2.14-85.22,30-126.94,17.65-26.48,21.92-49.28,26.33-76.24C327.44,163.54,328.5,160.28,325.47,159.27Z"/><path class="cls-4" d="M325.77,158.2c-5.58-1.52-8.51,4-10.15,8.46-2.48,6.69-3.81,14.14-4.95,21.17-.51,3.13-.74,6.43-1.75,9.45-.63,1.9-3.71,6.41-5.36,3.39-.84-1.55-.18-4.71,0-6.36,1.15-9.41,4.89-18.07,6.81-27.27.72-3.44,1.16-13.2-5.3-11.43-2.08.57-3.22,3-4,4.81-1.65,3.81-2.62,8-3.86,11.9-1.43,4.53-4.4,25.85-10.56,22.58-2.26-1.2-1.4-3.88-.93-6,1.26-5.61,3.32-11,4.78-16.6a89.85,89.85,0,0,0,2.89-15.6c.21-2.65.95-7.08-1.21-9.25-4.13-4.15-9.52,1.12-11.06,4.86-2,4.72-2.75,10.16-4.11,15.08-1.7,6.17-3.51,12.31-5.05,18.52-2.66,10.73-4.55,21.75-3.58,32.84,1.28,14.62,5.94,28.22,3.55,43-1.78,11.07-5.56,21.73-8,32.68-2.47,11.28-4.29,22.68-5.82,34.12-7.34,54.9-8,110.15-.18,165a1.11,1.11,0,0,0,1.07.82,72.78,72.78,0,0,0,23.2-6,1.14,1.14,0,0,0,.51-1.26c-3.1-22.48-6.81-44.88-9-67.47a516.73,516.73,0,0,1-1.61-69.73c.85-22.32,3.2-44.7,10-66.06a160,160,0,0,1,14.86-33c6.26-10.51,13-20.37,17.75-31.71a172.67,172.67,0,0,0,9.72-32.82c1.23-6.07,2.23-12.19,3.26-18.3.57-3.41,2.09-7.84-1.79-9.72-1.28-.62-2.41,1.3-1.12,1.92,3.38,1.63-.33,13.85-.85,16.8-.95,5.37-2,10.72-3.23,16a153.6,153.6,0,0,1-10.61,31c-5,10.57-12,19.9-17.61,30.11a163.7,163.7,0,0,0-13.14,31c-6.2,20.14-8.52,41.18-9.42,62.16a517.47,517.47,0,0,0,1.07,67.54c2.15,24.39,6.18,48.56,9.52,72.8l.51-1.26a69.34,69.34,0,0,1-22.08,5.72l1.07.82a575.86,575.86,0,0,1-2.09-145.18c2.65-23.64,6-47.21,12.47-70.14,2.41-8.53,4.5-17.29,4.54-26.2A90.42,90.42,0,0,0,273,234.08c-1.69-8.83-3-17.66-2.42-26.68.77-11.49,3.95-22.66,7-33.7,1.61-5.74,3.09-11.51,4.61-17.28.77-2.92,3-9.73,7.45-7.92,3.77,1.54,1.14,12.19.67,14.73a154.37,154.37,0,0,1-4.44,17.21c-1.1,3.61-5.37,12.4-1.35,15.77,5.09,4.26,8.71-1.74,10.41-6s2.07-8.64,3.17-12.93c.8-3.13,1.87-6.18,2.82-9.26.74-2.41,1.83-9.19,4.48-10.1,5-1.73,2.9,8.47,2.39,10.46-2.44,9.55-6.35,18.93-6.69,28.92-.07,2-.16,5,1.78,6.16,2.39,1.46,5.38-.58,6.72-2.48,4.23-6,4.35-43.66,15.57-40.6A1.11,1.11,0,0,0,325.77,158.2Z"/><path class="cls-3" d="M304.63,246.08c-9,2.43-27.12-1.32-33.29-8.32,0,0-7.56,28.77,7.85,34C291.08,275.8,304.63,246.08,304.63,246.08Z"/><path class="cls-4" d="M304.34,245c-9.87,2.42-25.07-.43-32.21-8a1.12,1.12,0,0,0-1.86.49c-2.33,9-3.73,21.07,1.26,29.37,2.68,4.45,7.89,7.64,13.1,5.85,5.69-1.95,9.88-7.6,13.15-12.35a91.54,91.54,0,0,0,7.81-13.7c.59-1.29-1.32-2.42-1.92-1.12a93,93,0,0,1-7.13,12.7c-3.28,4.93-9.64,14.43-16.77,12.55-12.41-3.27-9.73-23.56-7.35-32.72l-1.86.49c7.71,8.22,23.74,11.22,34.37,8.61C306.32,246.81,305.73,244.66,304.34,245Z"/><circle class="cls-3" cx="273.35" cy="228.25" r="13.75" transform="translate(32.55 490.61) rotate(-87.31)"/><path class="cls-4" d="M286,228.89a12.64,12.64,0,1,1-12-13.27c7.07.36,12,6.38,12,13.27a1.11,1.11,0,0,0,2.22,0c.07-8.08-5.9-15.14-14.2-15.49a14.86,14.86,0,0,0-1.29,29.69c8.34.36,14.8-6.14,15.49-14.2C288.32,227.47,286.1,227.47,286,228.89Z"/><circle class="cls-3" cx="304.84" cy="236.92" r="11.88" transform="translate(53.9 530.33) rotate(-87.31)"/><path class="cls-4" d="M294.09,236.36a10.77,10.77,0,1,1,10.2,11.31c-6.07-.3-10.21-5.46-10.2-11.31a1.11,1.11,0,0,0-2.22,0c0,7,5.14,13.25,12.42,13.53a13,13,0,1,0,1.11-26c-7.32-.33-12.89,5.39-13.53,12.42C291.74,237.79,294,237.78,294.09,236.36Z"/><circle class="cls-4" cx="277.28" cy="228.9" r="1.81" transform="translate(35.65 495.15) rotate(-87.31)"/><circle class="cls-4" cx="308.53" cy="237.76" r="1.81" transform="translate(56.58 534.8) rotate(-87.31)"/><path class="cls-4" d="M273.27,261.45c6.65-4.58,12.56,2.73,16,7.61.81,1.16,2.74.05,1.92-1.12-4.12-5.9-11.3-13.72-19-8.41-1.17.81-.06,2.73,1.12,1.92Z"/><path class="cls-4" d="M427.53,472.22c-32.77-7.56-66-13.26-98.73-20.82L330,453q4-127.41,15.35-254.44,3.18-35.63,6.94-71.2L350.66,129l86.51,7.4,12.15,1-1.63-1.63-2.21,33.67-5.32,80.83L433.73,348l-5.54,84.19L426.37,460c-.28,4.32-1,8.83-.87,13.15,0,.2,0,.4,0,.59-.14,2.1,3.13,2.09,3.27,0l2.21-33.67,5.32-80.83,6.43-97.75,5.54-84.19,1.83-27.84c.28-4.32,1-8.83.87-13.15,0-.2,0-.4,0-.59a1.67,1.67,0,0,0-1.63-1.63l-86.51-7.4-12.15-1c-.94-.08-1.55.82-1.63,1.63Q335.65,254.1,329.56,381.49q-1.7,35.73-2.82,71.48a1.65,1.65,0,0,0,1.2,1.58c32.77,7.56,66,13.26,98.73,20.82C428.71,475.84,429.58,472.69,427.53,472.22Z"/><polygon class="cls-4" points="449.33 139.05 459.79 148.04 436.25 465.4 427.1 471.18 449.33 139.05"/><path class="cls-4" d="M448.17,140.2l6.68,5.75c.89.76,2.21,2.45,3.33,2.86s-.4-.36,0-.69c-.37.34-.2,2.69-.23,3.16l-1.4,18.9L451,243.83l-7,94.93-6.27,84.52-2.08,28-.66,8.89a24.12,24.12,0,0,0-.34,4.64,3,3,0,0,1,0,.57l.81-1.41-9.15,5.78,2.46,1.41,2.21-33,5.32-79.51,6.42-95.88,5.55-82.88,1.83-27.33c.29-4.26,1-8.72.87-13,0-.19,0-.39,0-.58.14-2.1-3.13-2.09-3.27,0l-2.21,33-5.32,79.51-6.42,95.88-5.55,82.88-1.83,27.33c-.29,4.26-1,8.72-.87,13,0,.19,0,.39,0,.58a1.65,1.65,0,0,0,2.46,1.41c2.73-1.73,5.49-3.42,8.2-5.18,1-.64,1.53-1,1.77-2.19a30.68,30.68,0,0,0,.29-3.91l1.57-21.14,5.91-79.72,7.39-99.71,6.13-82.65,1.75-23.6c.14-1.84.33-3.69.41-5.54.11-2.57-2.35-3.75-4.19-5.33l-6.68-5.75C448.89,136.53,446.57,138.83,448.17,140.2Z"/><path class="cls-4" d="M353.83,231.11c1.52,19.41,2.87,39-3.77,57.66-4.93,13.82-11.55,29.2-21.66,40.09a1.94,1.94,0,0,0,1.36,3.28,320.18,320.18,0,0,1,44.17,2.62q5.59.73,11.16,1.67c2.83.48,6.47,1.81,9.31.72,3.84-1.48,5.75-7.29,7.37-10.7,9.75-20.51,14.91-43.32,18-65.7a255.13,255.13,0,0,0,2.7-35.85c0-2.47-3.85-2.48-3.84,0A268.31,268.31,0,0,1,411,287.19a210.7,210.7,0,0,1-9.33,30.08,114.87,114.87,0,0,1-6.34,13.42c-2.11,3.74-6.33,2.51-9.89,1.92q-4.86-.81-9.73-1.46a322.87,322.87,0,0,0-45.89-2.85l1.36,3.28c10.38-11.19,17.14-26.66,22.31-40.84,7-19.28,5.83-39.47,4.25-59.63-.19-2.45-4-2.47-3.84,0Z"/><path class="cls-4" d="M354.66,231.48c22.13-1.45,44.1-4.61,66.1-7.3,1.37-.17,1.39-2.35,0-2.18-22,2.69-44,5.85-66.1,7.3-1.39.09-1.4,2.27,0,2.18Z"/><path class="cls-4" d="M363.06,260.29q-.08,7.69-.82,15.34A1.38,1.38,0,0,0,363.6,277l6.52.11a1.36,1.36,0,0,0,0-2.72l-6.52-.11,1.36,1.36q.74-7.65.82-15.34a1.36,1.36,0,0,0-2.72,0Z"/><path class="cls-4" d="M374.25,260.44a69.8,69.8,0,0,1-.37,13.85c-.22,1.73,2.51,1.72,2.72,0a69.8,69.8,0,0,0,.37-13.85c-.13-1.74-2.85-1.75-2.72,0Z"/><path class="cls-4" d="M381.09,261.29l2.4,15.48a1.37,1.37,0,0,0,2.49.33q3.52-7.07,7.27-14c.83-1.54-1.52-2.92-2.35-1.37q-3.75,6.95-7.27,14l2.49.33-2.4-15.48c-.27-1.73-2.89-1-2.63.72Z"/><path class="cls-4" d="M395.89,263.75q0,7.3-.71,14.56a1.38,1.38,0,0,0,1.36,1.36,26,26,0,0,0,7-.46c1.72-.34,1-3-.72-2.63a23.29,23.29,0,0,1-6.26.37l1.36,1.36q.7-7.26.71-14.56a1.36,1.36,0,0,0-2.72,0Z"/><path class="cls-4" d="M397,274l6.28-1.45c1.71-.4,1-3-.72-2.63l-6.28,1.45c-1.71.4-1,3,.72,2.63Z"/><path class="cls-4" d="M397.27,265.92H403a1.36,1.36,0,0,0,0-2.72h-5.78a1.36,1.36,0,0,0,0,2.72Z"/><path class="cls-4" d="M362.52,285.76a25,25,0,0,0,9.23-.63,1.36,1.36,0,0,0-.72-2.63,23,23,0,0,1-8.51.53c-1.74-.21-1.72,2.52,0,2.72Z"/><path class="cls-4" d="M376.59,290.38A38.33,38.33,0,0,1,379,282l-1.86.49c3.14,1.49,3.19,6.4,5.59,8.81a1.38,1.38,0,0,0,2.14-.28,25.62,25.62,0,0,0,3.07-8.55c.29-1.71-2.34-2.45-2.63-.72a23.52,23.52,0,0,1-2.79,7.9l2.14-.28c-2.71-2.72-2.32-7.43-6.14-9.24a1.38,1.38,0,0,0-1.86.49,41.22,41.22,0,0,0-2.71,9c-.3,1.71,2.32,2.45,2.63.72Z"/><path class="cls-4" d="M390.09,288.33a34.63,34.63,0,0,0,6.91.42c1.75-.08,1.76-2.8,0-2.72a31.07,31.07,0,0,1-6.18-.32c-1.71-.27-2.45,2.35-.72,2.63Z"/><path class="cls-4" d="M362.22,291.72c-1.16,3.14-3.14,6.72-3.46,10.08a4.34,4.34,0,0,0,3,4.83c5.93,1.78,8.46-6,10.28-9.93.73-1.58-1.62-3-2.35-1.37-1.06,2.3-3,9.14-6.38,8.78-2.83-.3-1.58-3.34-.95-5.07.81-2.2,1.63-4.4,2.44-6.6.61-1.65-2-2.36-2.63-.72Z"/><path class="cls-4" d="M380.06,293.91a4.2,4.2,0,0,0-5.24,2.65,7.68,7.68,0,0,0-.23,3.93c.15,1,1.29,7.71-1.76,5.64-1.45-1-2.82,1.37-1.37,2.35a4,4,0,0,0,5.77-1.75,7.4,7.4,0,0,0,.41-4.48c-.2-1.33-1.46-6.84,1.69-5.71,1.65.6,2.36-2,.72-2.63Z"/><path class="cls-4" d="M383.61,295a87.4,87.4,0,0,1-3.24,13.18,1.38,1.38,0,0,0,1.31,1.72q5.52.57,11.06.9c1.75.1,1.74-2.62,0-2.72q-5.54-.32-11.06-.9l1.31,1.72a87.4,87.4,0,0,0,3.24-13.18c.28-1.71-2.34-2.45-2.63-.72Z"/><path class="cls-4" d="M384.82,303.73l7.34-.27c1.75-.06,1.76-2.79,0-2.72l-7.34.27c-1.75.06-1.76,2.79,0,2.72Z"/><path class="cls-4" d="M385.35,297.1l8.43.69c1.75.14,1.74-2.58,0-2.72l-8.43-.69c-1.75-.14-1.74,2.58,0,2.72Z"/><path class="cls-4" d="M351.7,310.33q-2.55,2.68-5.22,5.25a1.1,1.1,0,0,0,.48,1.82,49.12,49.12,0,0,0,6.7,1.8c1.37.27,2-1.83.58-2.1a49.12,49.12,0,0,1-6.7-1.8l.48,1.82q2.67-2.57,5.22-5.25c1-1-.57-2.56-1.54-1.54Z"/><path class="cls-4" d="M355.21,310.93l-6.44,12.59c-.64,1.25,1.24,2.35,1.88,1.1L357.09,312c.64-1.25-1.24-2.35-1.88-1.1Z"/><path class="cls-4" d="M359.28,313.29q-.79,2.55-1.6,5.08c-.37,1.13-1.25,2.74-1.07,4,.34,2.27,4.4,2,6,2a1.09,1.09,0,0,0,0-2.18,24.47,24.47,0,0,1-3.23-.27c-.23,0-.73-.32-.56-.07-.14-.21.52-1.58.6-1.81q1-3.08,2-6.17c.41-1.34-1.69-1.92-2.1-.58Z"/><path class="cls-4" d="M358.76,319.23a21.77,21.77,0,0,0,4.81.26c1.39-.09,1.4-2.27,0-2.18a19.21,19.21,0,0,1-4.23-.18c-1.37-.22-2,1.88-.58,2.1Z"/><path class="cls-4" d="M360.21,315.15l3.68,0a1.09,1.09,0,0,0,0-2.18l-3.68,0a1.09,1.09,0,0,0,0,2.18Z"/><path class="cls-4" d="M366.63,313.49l.53,10.55a1.1,1.1,0,0,0,2,.55l5.81-8.88c.77-1.18-1.12-2.27-1.88-1.1l-5.81,8.88,2,.55-.53-10.55c-.07-1.4-2.25-1.4-2.18,0Z"/><path class="cls-4" d="M376.87,316a47.49,47.49,0,0,1-2.23,9.66,1.1,1.1,0,0,0,1.05,1.38q3.24.35,6.5.5c1.4.06,1.4-2.12,0-2.18q-3.26-.15-6.5-.5l1.05,1.38A50.16,50.16,0,0,0,379,316c.17-1.39-2-1.38-2.18,0Z"/><path class="cls-4" d="M377.24,321.59l4.76.64c1.37.18,2-1.91.58-2.1l-4.76-.64c-1.37-.18-2,1.91-.58,2.1Z"/><path class="cls-4" d="M378.21,316.52a13.39,13.39,0,0,1,4.42,1c1.3.52,1.87-1.59.58-2.1a15.16,15.16,0,0,0-5-1.05c-1.4-.06-1.4,2.12,0,2.18Z"/><path class="cls-4" d="M387,316.75a28.9,28.9,0,0,1-3.23,9l1.88,1.1.4-.74c.66-1.24-1.22-2.34-1.88-1.1l-.4.74c-.66,1.23,1.19,2.33,1.88,1.1a30.73,30.73,0,0,0,3.45-9.54c.25-1.37-1.85-2-2.1-.58Z"/><path class="cls-4" d="M389,318.58a1.55,1.55,0,0,1,2.14.95c.15.61-1.22,1.48-1.66,1.7a8.29,8.29,0,0,0-1.87,1.19,1.11,1.11,0,0,0,0,1.54,56.66,56.66,0,0,1,3.87,4.76c.82,1.12,2.71,0,1.88-1.1a61.82,61.82,0,0,0-4.21-5.2V324c1.07-.92,2.57-1.11,3.45-2.27a3.47,3.47,0,0,0-4.7-5,1.09,1.09,0,0,0,1.1,1.88Z"/><path class="cls-5" d="M377.19,234.44a87.67,87.67,0,0,0,.37,13.16"/><path class="cls-5" d="M376.32,235.21a6.09,6.09,0,0,1,6.14-1.57"/><path class="cls-5" d="M376.85,240.69a18.5,18.5,0,0,1,5.82-1.12"/><path class="cls-5" d="M386.14,233.09l.8,14.53.32-1"/><path class="cls-5" d="M386,234.63a2.18,2.18,0,0,1,3.09-1.49,3.85,3.85,0,0,1,1.49,3.81,5.5,5.5,0,0,1-2.17,3.55,20.58,20.58,0,0,1,3.94,6.17"/><path class="cls-5" d="M396.3,233.58q-.1,6.4.19,12.79a1.46,1.46,0,0,0,.25.92,1,1,0,0,0,.82.19l4.63-.42"/><path class="cls-5" d="M395.83,240.46l5.21-1.13"/><path class="cls-5" d="M395.62,233.57a10,10,0,0,1,4.91-.67"/><path class="cls-5" d="M406.12,232.23l.15,14a2.08,2.08,0,0,0,.36,1.41,1.35,1.35,0,0,0,1,.3h4"/><path class="cls-5" d="M406.57,240.26l3.68,0"/><path class="cls-5" d="M406.35,233.06l4.6-.35"/><path class="cls-4" d="M357.72,257c20.08,0,40.13-1.45,60.21-.77,2.47.08,2.47-3.76,0-3.84-20.08-.68-40.13.77-60.21.77-2.47,0-2.48,3.84,0,3.84Z"/><path class="cls-4" d="M365.72,234l-3.46,8.9c-.29.74.43,1.3,1.05,1.38a19.46,19.46,0,0,0,8.3-.72c1.34-.41.77-2.51-.58-2.1a18,18,0,0,1-7.72.64l1.05,1.38,3.46-8.9c.51-1.31-1.6-1.87-2.1-.58Z"/><path class="cls-4" d="M368.86,235.47q-.11,6.42.25,12.82c.08,1.39,2.26,1.4,2.18,0q-.36-6.41-.25-12.82a1.09,1.09,0,0,0-2.18,0Z"/><path class="cls-4" d="M239.14,141.69c-13.71-2.4-24.17,30.74-26.74,37-6.46,15.8-10,31-15,47.31A684.82,684.82,0,0,0,175.75,324c-9.19,61.41-7.87,119.17,4.08,183.41l8,2.29,1.6-186.27Z"/><path class="cls-3" d="M245.45,153.42c-.47-3.77-1.55-7.88-4.7-10-9.47-6.36-20.51,29.91-23,36.19-6.19,15.8-10.52,30.81-15.27,47.11a710.13,710.13,0,0,0-20.78,97.94c-8.81,61.41-4.88,119.17,6.57,183.41l21-6.17C200.76,449.55,192.07,397,198,344.34c1-9.14,2.59-18.55,7.66-26.22,3.86-5.84,8.4-10.68,11-17.19a325.65,325.65,0,0,0,16-53c4.92-22.94,9-42.88,11.72-65.52C245.5,172.81,246.65,163,245.45,153.42Z"/><path class="cls-4" d="M247.34,152.89c-.91-6.42-5.88-16-13.33-10.49-5.64,4.19-8.67,12.16-11.29,18.4-8.51,20.28-15.13,41.45-21.28,62.53-17.16,58.84-27.85,120.42-26.34,181.85.85,34.72,5.24,69.24,11.3,103.4a2,2,0,0,0,2.41,1.37l21-6.17a2,2,0,0,0,1.37-2.41c-7.82-47.79-15.83-96.16-12.41-144.75.79-11.27,1.32-23.85,6.54-34.12,2.15-4.22,5.23-7.87,7.94-11.73a60.31,60.31,0,0,0,6.85-13.56c8.25-21.63,13.52-43.91,18.14-66.54,2.52-12.38,4.83-24.8,6.61-37.31,1.87-13.14,4-26.67,2.54-39.94-.28-2.48-4.2-2.51-3.92,0,1.4,12.46-.47,25.1-2.19,37.44-1.61,11.54-3.66,23-5.94,34.44-4.51,22.6-9.49,45-17.44,66.67-1.86,5.08-3.65,10.18-6.61,14.74s-6.82,8.85-9.35,13.82c-4.46,8.76-5.52,18.78-6.44,28.43-2.34,24.46-1.63,49.11.67,73.54,2.52,26.8,6.9,53.37,11.24,79.92L208.8,500l-21,6.17,2.41,1.37c-10-56.27-14.77-113.45-8.13-170.41a683.43,683.43,0,0,1,16-86.45c6.25-25,14.15-49.34,22.72-73.6,2.7-7.65,5.4-15.37,9.17-22.58,1.62-3.09,3.51-6.93,6.45-9,4.75-3.34,6.71,5.14,7.17,8.43C243.91,156.43,247.69,155.37,247.34,152.89Z"/><path class="cls-4" d="M212.87,252.68c3.36.64,4,5.05.46,6.15a1.13,1.13,0,0,0-.27,2,2.94,2.94,0,1,1-3.48,4.66c-1.06-1-2.64.62-1.57,1.57,2.25,2,6,2.18,7.93-.41s.8-6.13-1.75-7.74l-.27,2a5.34,5.34,0,0,0-.46-10.44c-1.4-.27-2,1.87-.59,2.14Z"/><path class="cls-3" d="M217.22,218.64a2.5,2.5,0,0,0-1.36-.78L191.36,210l.17,2.06a34.71,34.71,0,0,0-.63,8.43,11.68,11.68,0,0,0,3.34,7.59,15,15,0,0,0,6.29,3.07c3.55,1,7.57,1.56,10.76-.3,3.47-2,4.86-6.26,6-10.12A2.53,2.53,0,0,0,217.22,218.64Z"/><path class="cls-4" d="M218,217.85c-2.88-2.35-7.72-2.94-11.22-4.05L191.65,209a1.12,1.12,0,0,0-1.41,1.07c.45,5.28-1.61,10.34.81,15.48,2,4.23,6,6.05,10.37,7.07s9,1,12.34-2.21c2.63-2.55,5.43-8.4,4.52-12a1.11,1.11,0,0,0-2.14.59c.72,2.89-2,7.93-4,9.87-3.44,3.34-9,2.29-13.07.8-5.07-1.86-7.25-5.91-7.17-11.17,0-2.86.76-5.54.52-8.39l-1.41,1.07,13,4.13,5.77,1.84c1.94.62,5,1,6.63,2.33C217.53,220.32,219.12,218.76,218,217.85Z"/><path class="cls-3" d="M248.15,229.26a2.16,2.16,0,0,0-1.17-.67l-21.14-6.74.15,1.78a30,30,0,0,0-.55,7.28,10.08,10.08,0,0,0,2.88,6.55,12.91,12.91,0,0,0,5.43,2.65c3.06.86,6.53,1.35,9.28-.26,3-1.75,4.19-5.4,5.15-8.73A2.18,2.18,0,0,0,248.15,229.26Z"/><path class="cls-4" d="M248.94,228.47c-2.45-2-6.45-2.49-9.41-3.43l-13.39-4.27a1.12,1.12,0,0,0-1.41,1.07c.37,4.38-1.28,8.63.49,12.92s5.75,6,10,6.83c3.84.78,7.78.48,10.52-2.61,2.07-2.33,4.26-6.9,3.48-10a1.11,1.11,0,0,0-2.14.59c.6,2.4-1.58,6.55-3.24,8.24-2.87,2.92-7.49,2.08-11,.88-8.4-2.9-5.36-10.18-5.92-16.83l-1.41,1.07,11.28,3.59,5.64,1.8c1.47.47,3.69.74,4.91,1.74S250,229.37,248.94,228.47Z"/><path class="cls-4" d="M206.53,225c2.52,0,2.53-3.92,0-3.92s-2.53,3.92,0,3.92Z"/><path class="cls-4" d="M239.9,235.52c2.52,0,2.53-3.92,0-3.92s-2.53,3.92,0,3.92Z"/><path class="cls-4" d="M306.06,123.21a54.24,54.24,0,0,0-1.52-13.6l-2.08,1.21,8.76,9.4a1.26,1.26,0,0,0,2.12-.88q.3-8.92,0-17.85c0-1.6-2.54-1.6-2.49,0q.27,8.92,0,17.85l2.12-.88-8.76-9.4a1.25,1.25,0,0,0-2.08,1.21,51.54,51.54,0,0,1,1.43,12.94,1.24,1.24,0,0,0,2.49,0Z"/><path class="cls-4" d="M314.59,100.1l.9,17.89c.08,1.59,2.57,1.6,2.49,0l-.9-17.89c-.08-1.59-2.57-1.6-2.49,0Z"/><path class="cls-4" d="M325.9,98.38c-.63-1.74-2.29-1.84-3.73-.89-2.08,1.38-3.14,4.91-3.56,7.24-.9,5.06,2.33,10.86,8.08,9.87,1.57-.27.91-2.67-.66-2.4-3.48.6-5.34-3.25-5.08-6.15a12.76,12.76,0,0,1,1-3.74c.32-.76,1.76-2.7,1.55-3.26.54,1.49,2.95.85,2.4-.66Z"/><path class="cls-4" d="M327.53,102.84c3.06-.66,7.45-2.17,7.38-6,0-2.77-3-5.8-5.73-3.89-1.4,1-1.88,2.78-2.32,4.33a16.23,16.23,0,0,0-.63,7.25c.69,3.83,3.65,7,7.65,7.11a1.24,1.24,0,0,0,0-2.49c-5.79-.17-5.75-7.22-4.62-11.21.25-.88.64-3.22,2.07-3,1.27.18,1.09,2.25.75,2.94-.9,1.78-3.44,2.23-5.21,2.61-1.56.34-.9,2.73.66,2.4Z"/><path class="cls-4" d="M216.58,87.51c2.52,0,2.53-3.92,0-3.92s-2.53,3.92,0,3.92Z"/><path class="cls-4" d="M224.43,91.69c2.52,0,2.53-3.92,0-3.92s-2.53,3.92,0,3.92Z"/><path class="cls-4" d="M278.81,108.43c2.52,0,2.53-3.92,0-3.92s-2.53,3.92,0,3.92Z"/><path class="cls-4" d="M285.61,112.09c2.52,0,2.53-3.92,0-3.92s-2.53,3.92,0,3.92Z"/><path class="cls-4" d="M212.64,96a5.18,5.18,0,0,0,8.88,4.94c1.63-1.91-1.13-4.69-2.77-2.77-1,1.18-2.8.51-2.32-1.13.71-2.43-3.07-3.46-3.78-1Z"/><path class="cls-4" d="M276.72,118.88c2.52,0,2.53-3.92,0-3.92s-2.53,3.92,0,3.92Z"/></g></svg>