<svg id="Layer_1" data-name="Layer 1" xmlns="http://www.w3.org/2000/svg" viewBox="0 0 595.28 841.89"><defs><style>.cls-1{fill:#231f20;}.cls-2{fill:none;stroke:#231f20;stroke-linecap:round;stroke-linejoin:round;stroke-width:6px;}</style></defs><title>illustration</title><path class="cls-1" d="M270.69,337.71c1.25,1.9,3.79,5.84,3,8.32-1.71,5.21-10-2.73-11-3.83-3.89-4.25-6.88-8.94-11.35-12.67A62.87,62.87,0,0,0,223.37,316c-17.59-3.52-36.62.16-52.38,8.45a85.37,85.37,0,0,0-44.68,84.09c2.75,25,17.17,45.36,32,64.79A550.22,550.22,0,0,0,223,544.07c23.68,21.76,51.08,44.74,82.58,53.8,2.32.67,3.32-2.95,1-3.62-28.06-8.07-52.68-27.77-74.19-46.77A544.59,544.59,0,0,1,166,477.13c-14.62-18.49-30.32-38.56-35-62.23-7.12-36.18,12-73.45,45.4-89,21.3-9.91,47.67-10.8,67.59,2.78,5.59,3.81,9.66,8.36,13.83,13.59,2.93,3.67,6.67,7.94,11.58,8.73,10.61,1.71,8.11-9.65,4.48-15.19-1.32-2-4.57-.13-3.24,1.89Z"/><path class="cls-1" d="M270.69,337.71c5.2,8.43,14.93,19.32,25.16,21.32,4.23.83,8.91-.3,11-4.39,2.46-4.88.23-10.71-1.67-15.39-9.14-22.42-32.93-35.56-54.32-44.13-24.86-10-54.72-12.6-80.59-5a104.27,104.27,0,0,0-54.64,38.49,103,103,0,0,0-19.7,64.77c.91,19.74,7.89,38.69,16.19,56.47,17.41,37.29,43.87,70.06,72.86,99a638.23,638.23,0,0,0,70.25,59.94,176.5,176.5,0,0,0,40.72,22.87,34.65,34.65,0,0,0,10.57,2.6c2.41.13,2.4-3.62,0-3.75-8.22-.43-16.5-5.32-23.57-9.12s-13.72-7.83-20.36-12.11c-19.45-12.55-37.45-28.35-54.62-43.82-31.16-28.08-60-59.67-81.28-96-17.77-30.3-32.6-65.89-24.75-101.47,9.85-44.67,50.24-77.53,95.95-78.2a138.17,138.17,0,0,1,81.89,25c10.78,7.62,20.5,18.17,23.79,31.28,1.27,5.06-.34,10.48-6.66,9.42-3.11-.52-6-2.46-8.5-4.28a55.49,55.49,0,0,1-14.42-15.31c-1.26-2.05-4.51-.17-3.24,1.89Z"/><path class="cls-1" d="M278.47,337.44c6.24,5,11,12.33,14.24,19.59,1,2.2,4.22.29,3.24-1.89-3.36-7.49-8.38-15.15-14.82-20.35-1.86-1.5-4.53,1.14-2.65,2.65Z"/><path class="cls-1" d="M281.6,332.25c7.58,6.8,12.84,15.63,16.18,25.2.79,2.26,4.41,1.29,3.62-1-3.55-10.16-9.08-19.62-17.14-26.85-1.79-1.61-4.45,1-2.65,2.65Z"/><path class="cls-1" d="M288.75,332.25c6.95,5.72,10.44,14.34,13,22.74.7,2.3,4.32,1.32,3.62-1-2.72-9-6.52-18.29-13.95-24.4-1.85-1.52-4.52,1.12-2.65,2.65Z"/><path class="cls-1" d="M340.36,335.82c-3.26,5-6.47,14.75,2.55,15.31,9.2.58,14.5-11.25,20-16.58,16.89-16.31,41.64-19.27,63.49-12.91,34.67,10.08,59.1,43.18,58.31,79.32-.59,26.85-15.24,48.54-30.67,69.29a517.19,517.19,0,0,1-63.88,71.08c-23.81,22-52.19,45.7-84.64,52.94-2.35.53-1.36,4.14,1,3.62,28.07-6.26,52.89-24.95,74.33-43.27C405.93,533.2,428.62,508.83,449,483c13.67-17.35,28.2-35.91,35.24-57.14,11.28-34-.86-72.35-29.32-94a83.92,83.92,0,0,0-54.67-17.07,63,63,0,0,0-34.81,12.76c-4.85,3.7-8.38,8-12.21,12.72-2,2.41-4.78,6-8,6.8-8.07,2-3.41-6.66-1.64-9.36,1.33-2-1.92-3.9-3.24-1.89Z"/><path class="cls-1" d="M340.36,335.82a55.64,55.64,0,0,1-11.43,12.94c-3.88,3.3-18.66,13.18-18.8,1-.06-5.5,3.38-11.86,6.16-16.38a60.17,60.17,0,0,1,12.22-14c18.82-16.16,44.69-26.25,69.15-28.85,24-2.54,47.73.74,68.64,13.3a100.28,100.28,0,0,1,41.87,49.87,101.35,101.35,0,0,1,0,71.25,277.09,277.09,0,0,1-15.86,36.12c-19,35-45.28,65.77-74,93.17-11.09,10.58-22.62,20.7-34.48,30.42-9.71,8-19.49,16.43-30.11,23.16-6.85,4.34-13.85,8.47-21,12.3-7.85,4.2-17.16,9.81-26.27,10.28-2.4.12-2.42,3.87,0,3.75,8.06-.41,16-4.6,23.09-8.15,8.08-4.06,15.93-8.62,23.61-13.39,8.18-5.08,15.68-11.21,23.23-17.17,12.47-9.83,24.61-20.08,36.31-30.8,32.76-30,63-64.21,83.92-103.68,7.39-13.94,14-28.95,18.15-44.18a103.44,103.44,0,0,0-54.13-120.28c-23.34-11.45-49.95-12.85-75.21-7.89-13.74,2.7-26.62,7.93-39,14.47-10.26,5.44-20.26,12-27.89,20.85A55.75,55.75,0,0,0,309.23,339c-1.94,4.71-4.25,10.67-1.77,15.61,5.3,10.54,19,1.2,24.66-3.71a58.87,58.87,0,0,0,11.47-13.21c1.27-2.06-2-3.95-3.24-1.89Z"/><path class="cls-1" d="M333.16,334.79c-6.44,5.19-11.47,12.86-14.82,20.35-1,2.18,2.25,4.09,3.24,1.89,3.25-7.26,8-14.56,14.24-19.59,1.88-1.51-.79-4.15-2.65-2.65Z"/><path class="cls-1" d="M330,329.6c-8.07,7.23-13.6,16.69-17.14,26.85-.8,2.28,2.82,3.26,3.62,1,3.34-9.57,8.59-18.4,16.18-25.2,1.8-1.61-.86-4.26-2.65-2.65Z"/><path class="cls-1" d="M322.88,329.6c-7.42,6.11-11.23,15.42-13.95,24.4-.7,2.31,2.92,3.3,3.62,1,2.54-8.4,6-17,13-22.74,1.86-1.53-.8-4.17-2.65-2.65Z"/><path class="cls-1" d="M195.84,510.89c2.26-5.28,3.56-11.61,2.74-17.35-.33-2.31-1.06-4.84-2.95-6.37-3.21-2.62-7.79-1-10.88-4.09-4.6-4.63-5.4-12.27-11.61-15.5-5.14-2.67-12.29-1.92-17.91-2.47-2.5-.25-2.48,3.66,0,3.9,4.8.47,10.77-.14,15.28,1.65,5.44,2.16,7,9.5,10.27,13.76a12.47,12.47,0,0,0,4.8,4c3.15,1.38,7,.12,8.65,3.63,2.18,4.58.11,12.53-1.77,16.92-1,2.28,2.38,4.27,3.37,2Z"/><path class="cls-1" d="M158,339.07c13.2-.77,26.26.68,38.67,5.35,7.45,2.8,14.16,7,21.39,10.25,9.92,4.48,19.22.66,29.09-2.25,4.64-1.37,14-3.24,15.57,3.71,1.2,5.33-5.06,6.56-8.62,7.35-8.68,1.94-17.44,3.57-26.15,5.36a2,2,0,0,0-1.17,2.86c2.07,4.89,5.23,10.93,10.75,12.6s9.44-2.1,13-5.75,7.19-5.79,12.4-4.37c4.34,1.19,7.74,4.25,10.74,7.48,1.77,1.91,5,4.42,3,7.53-.86,1.31-4.17,1.82-5.63,2.36a95,95,0,0,1-13.51,3.81,2,2,0,0,0,0,3.76c3.06.69,2.92,4.7,1.51,6.81-1.7,2.53-5.27,3.24-8.05,3.78-5,1-9.67,1.76-14.2,4.18a33.5,33.5,0,0,0-10.57,8.95c-3.62,4.63-7.4,13.13-14.69,10.66a2,2,0,0,0-2.4,1.36,27.16,27.16,0,0,1-7.21,11.89l3.26.86c-3.22-8-10.27-15.78-19.38-16.62-9.73-.9-16.25,7.29-17,16.3a2,2,0,0,0,1.43,1.88c8.74,3.21,13.17,12.39,17.71,19.87,3.58,5.9,7,14.27,13.7,17.33,2.8,1.28,5.82,1.3,8.83,1.33a40.58,40.58,0,0,1,14.25,2.39c8.49,3.2,16.06,8.7,23.62,13.61a68,68,0,0,1,11.37,9.08,47.34,47.34,0,0,0,7.38,6.11c6.13,4.05,14,7.07,17.57,13.95,4,7.74,1.56,18.44-5,24-6,5.11-14.07,7.72-21.44,10.12-2.38.78-1.36,4.54,1,3.76,10.54-3.44,23.54-7.61,28.62-18.41,5.47-11.64,1.76-23.41-8.63-30.53-5.73-3.93-11.79-6.79-16.76-11.78-5.46-5.48-11.67-9.39-18.15-13.57s-12.9-8.27-20.16-10.69a38.22,38.22,0,0,0-9.61-1.9c-4.61-.29-9.38.64-13.29-2.37s-6.1-8.09-8.54-12.11c-2.17-3.58-4.27-7.21-6.56-10.7-3.8-5.79-8.24-10.84-14.88-13.28l1.43,1.88c.64-7.85,6.9-14.15,15.05-12,6.34,1.68,11.31,7.45,13.66,13.34a2,2,0,0,0,3.26.86,31.38,31.38,0,0,0,8.21-13.61l-2.4,1.36c6.44,2.17,11.72-2.1,15.32-7.08,6-8.33,12.1-14.23,22.6-16.1,5.56-1,12.73-1.89,14.86-8.07,1.48-4.29.12-9.56-4.71-10.65v3.76a94.61,94.61,0,0,0,15.15-4.43c2.68-1,6.23-2,7.69-4.73,1.65-3-.39-5.67-2.28-8-2.87-3.47-6-6.89-9.88-9.26-6.07-3.72-13.62-4.1-19.16.72-3.16,2.76-5.8,7.72-10.6,7.21s-7.67-7-9.32-10.95L229,372.6c9.52-2,19.47-3.28,28.81-6,5.26-1.53,10.39-5.37,8.69-11.53-1.83-6.61-9.06-8.57-15.09-7.68-9,1.33-17.91,7.42-27.32,5.33-8.13-1.81-15.64-7.68-23.3-10.86-13.61-5.64-28.11-7.56-42.78-6.71-2.49.14-2.51,4,0,3.9Z"/><path class="cls-1" d="M468.89,452.07c-4.1-2.82-8.95-2.18-13.66-2.54-6.83-.52-10.11-4.69-11.42-11.11-1.89-9.25-.63-18.87-6.85-26.71l-2.76,2.76a34.31,34.31,0,0,1,9.34,11.67c2.14,4.48,2.23,9.86,5,14,3.63,5.52,11.4,7,17.3,4.59,6.58-2.75,10.06-10,10.07-16.84,0-8.94-5.63-16.49-12.24-21.94l-1.9,3.26a114.36,114.36,0,0,0,14.38,4.54c2.43.58,5.79,2.09,8.12.57,4.63-3,4.53-9.48,4.06-14.15-1.31-13-3.38-26.08-8.71-38.13C473.81,349,464.31,338.24,453,329.59c-4.19-3.21-10.21-8.09-16-7-2.75.54-4,2.3-5.18,4.64-1.65,3.22-2.3,4.87-6.33,3.91a19.54,19.54,0,0,1-5.62-2.58l-.47,3.56a4.29,4.29,0,0,0,3.31-5.53c-1.1-3.68-6.24-5-9.15-6.84-2-1.26-4-2.82-6.39-3.29-3.41-.66-7.23.73-10.45,1.63-2.41.68-1.39,4.44,1,3.76,3.33-.94,7.08-2.49,10.4-.89a39.71,39.71,0,0,1,3.44,2.16c.73.45,1.46.89,2.21,1.3.13.07,6.32,3.55,4.57,3.94A2,2,0,0,0,418,332c3.75,2.3,9,4.77,13.36,2.64a7.58,7.58,0,0,0,3.65-4.39c2.36-5.72,6.84-3.5,11-.91a81,81,0,0,1,27.13,28.44c5.55,9.94,8.4,21,10.06,32.22.77,5.15,3,13.26.68,18-.92,1.84-1,2.54-3,2.86-1.51.24-4.1-.9-5.52-1.27a116.37,116.37,0,0,1-12.55-4.08c-1.79-.69-3.37,2-1.9,3.26,5.65,4.66,10.76,10.81,11.07,18.46.31,7.43-4.59,15.42-12.82,14.79-8.87-.68-8.72-9.48-11.39-15.93A36.93,36.93,0,0,0,437,411.7a2,2,0,0,0-2.76,2.76c6.76,8.52,3.2,20.49,7.37,30a14.58,14.58,0,0,0,8.05,8c5.53,2,12.28-.49,17.3,3,2.07,1.43,4-2,2-3.37Z"/><path class="cls-1" d="M396.79,318.14c-11.08,3.21-20.69,11.68-16.82,24.11a2,2,0,0,0,1.88,1.43,14.08,14.08,0,0,1,11,5.69,2,2,0,0,0,3.06-.39c2.85-6.54,5.42-12.17,10-17.7l-3.26-1.9a12.12,12.12,0,0,0,9.68,14.31l-1.36-2.4c-4.1,10-18.85,12.07-25.91,4.17a2,2,0,0,0-3.26.86A37.68,37.68,0,0,1,378,355l2.67-.7-3.52-2.48a2,2,0,0,0-2.67.7c-3.26,5.39-19.41,9.19-12.57,18.5l1.17-2.86c-6.92,2.16-20.88,8.63-14.34,18.06,6.17,8.9,16.78,2.79,21.85-3.52a43.19,43.19,0,0,1,5.06-5.68c3.51-3.06,6.54-3.22,10,.3,2.5,2.57,2.88,5.51,4,8.71a6.27,6.27,0,0,0,2.8,3.83c2.78,1.45,5.45-.45,6.53-3.05a9.15,9.15,0,0,0,.49-5.23c-.66-3.24-4.21-6.43-2.58-9.87H393.5q5.35,7.4,10.69,14.81c2.08,2.86,4.56,3.31,7.86,1.52,3.49-1.89,4-5.73,7.11-7.89a94.56,94.56,0,0,1,17.23-9.29l-2.4-1.36a21.67,21.67,0,0,0,9.84,14l1-3.63-15.63,1c-2.91.19-8.35-.57-10.75.91-3.87,2.38-.91,7.53,2.16,8.87,3.7,1.61,8,1,10.15,5.31,1.56,3.15-1.74,5.4-4.63,5.46a58.26,58.26,0,0,1-6.62-.53l-29.2-2.81L392,401c3.26-5.3-.31-11.92-5.9-13.84-4.34-1.49-9.05-.26-13.2,1.23-4.84,1.74-10.53,6.07-15.76,4.86a2,2,0,0,0-2.4,2.4c.19,1.3.43,2.58.62,3.87l.9-2.2c-14.73,10.57-25.19,29.29-22.72,47.82,1.09,8.14,5.65,16.18,13.84,18.88,9.79,3.23,16.83-5.6,26.22-5l-1.88-2.47c-1.7,6.07,3.75,9,8.47,11.06,3.11,1.33,5,2.85,5.4,6.48.12,1.16.13,2.33.28,3.49a33.33,33.33,0,0,0,3,10.22c6.46,13.61,20.71,19,34.42,22.41,2.44.6,3.48-3.16,1-3.76-12.89-3.2-26.5-8-32.29-21.11a30.29,30.29,0,0,1-2.46-9.84c-.18-2.19-.13-4.47-1.2-6.47-2.12-3.95-14.23-6.65-12.88-11.45a2,2,0,0,0-1.88-2.47c-7.54-.47-13,5.26-20.22,5.8-10,.75-15.54-9.37-16.18-18-1.23-16.46,7.87-32.83,21-42.26a2.08,2.08,0,0,0,.9-2.2c-.19-1.3-.43-2.58-.62-3.87l-2.4,2.4c5.08,1.17,9.11-1.11,13.63-3.16,3.53-1.6,7.76-3.43,11.71-3.47,4.22,0,10.2,3.76,7.19,8.65a2,2,0,0,0,1.68,2.93c10.38,1,20.76,2,31.15,3,4.94.46,12.33.92,13.7-5.41,1.08-5-3.57-9.77-8-11.3-1.25-.43-6.23-.57-5.8-3,0-.26,7.16-.47,7.81-.52l15.63-1a2,2,0,0,0,1-3.63,17.79,17.79,0,0,1-8-11.7,2,2,0,0,0-2.4-1.36,103.92,103.92,0,0,0-11.49,5.52c-3.07,1.74-8.54,4.13-10.62,7-1.06,1.47-.4,2.79-2,4.29-3.29,3-4.14-.08-5.78-2.35l-8.55-11.85c-.77-1.07-2.68-1.45-3.37,0a8.63,8.63,0,0,0-.05,7.62c.58,1.46,3.54,6,2.11,7.38-2.32,2.24-2.69-2.26-3.07-3.41-1.56-4.78-6.8-11.53-12.44-10.85-6.89.83-10.49,8.25-14.82,12.65a11.51,11.51,0,0,1-6.29,3.45,7.08,7.08,0,0,1-3.86-.27c-2.38-.91-2.56-1.58-3-4.22-.43-2.94,0-3.59,2.07-5.5a13.76,13.76,0,0,1,2.8-1.92,40.5,40.5,0,0,1,7.16-2.73,2,2,0,0,0,1.17-2.86c-3.52-4.79,4.24-7.77,7.25-9.55a14.38,14.38,0,0,0,5.32-5l-2.67.7,3.52,2.48a2,2,0,0,0,2.67-.7,41.51,41.51,0,0,0,4.17-9.57l-3.26.86c9.21,10.31,27.3,6.66,32.42-5.89a2,2,0,0,0-1.36-2.4c-4.55-.83-7.78-4.77-7-9.51.29-1.7-1.89-3.56-3.26-1.9-4.76,5.78-7.58,11.61-10.58,18.49l3.06-.39a17.87,17.87,0,0,0-13.79-6.83l1.88,1.43c-3.22-10.32,5.08-16.7,14.09-19.31,2.41-.7,1.38-4.46-1-3.76Z"/><path class="cls-1" d="M318.95,593.13c1.43-7.26.46-14.31-.74-21.53-1.49-9-2.13-17,.57-25.84,1.9-6.25,4.65-12.61,4.47-19.28-.1-3.6-1.69-6.21-2.46-9.57-1.54-6.78,5.47-8.56,10.62-9,8.81-.74,10.2,7.29,16.19,11.45,5,3.49,11.36,3.06,17.05,1.87,3.88-.81,9.59-3.36,13.61-2.51s5.69,5.56,8.52,8.15A23.86,23.86,0,0,0,402.92,533c2.51,0,2.51-3.88,0-3.9a19.88,19.88,0,0,1-13.39-4.93c-2.45-2.2-3.73-5.47-6.29-7.51-5.31-4.23-13.87-.3-19.63.87-5.21,1.06-11.18,1.52-15.29-2.56-2.34-2.32-3.71-5.46-6.19-7.67-4.85-4.32-11.37-3.62-17.17-2s-10.54,4.23-8.5,11.13c1.22,4.13,3.05,7.11,2.86,11.59-.2,4.65-1.88,9.15-3.29,13.54-2.57,8-3.8,15.27-2.73,23.67,1.14,9,3.68,17.81,1.89,26.87-.48,2.45,3.27,3.5,3.76,1Z"/><path class="cls-2" d="M250.86,221q1.94,32.16,6.28,64.11l23.54-8.55"/><path class="cls-2" d="M281.31,228.3a80.24,80.24,0,0,0-2.45,23.13c.27,6.79,2,14.47,8,17.77a6.81,6.81,0,0,0,5.69.73,8.33,8.33,0,0,0,3.79-3.84,31.66,31.66,0,0,0-2.14-34.31c-2.1-2.75-4.84-5.24-8.23-5.94s-7.41.94-8.45,4.24"/><path class="cls-2" d="M307.59,210.53a344.61,344.61,0,0,0,5.6,62c.62,3.4,2.5,7.7,5.91,7.18,2.31-.35,3.56-2.83,4.4-5A173.36,173.36,0,0,0,334.83,221"/><path class="cls-2" d="M343.55,242.35c5.51,1.94,12.45,1.4,16.12-3.14s1.2-13.12-4.64-13.4-9,6.45-10.5,12c-1.91,6.94-3.67,14.12-2.84,21.28s4.74,14.37,11.36,17.21,15.73-.37,17.56-7.34"/><path class="cls-1" d="M290.76,300.66a72,72,0,0,0,5.8,12.54,1.5,1.5,0,0,0,2.59-1.51,67.88,67.88,0,0,1-5.5-11.82c-.64-1.81-3.54-1-2.89.8Z"/><path class="cls-1" d="M315.33,311.53l8.76-10.21c1.25-1.46-.86-3.59-2.12-2.12l-8.76,10.21c-1.25,1.46.86,3.59,2.12,2.12Z"/><path class="cls-1" d="M305.58,295.31v11a1.5,1.5,0,0,0,3,0v-11a1.5,1.5,0,0,0-3,0Z"/></svg>