<svg id="Layer_1" data-name="Layer 1" xmlns="http://www.w3.org/2000/svg" xmlns:xlink="http://www.w3.org/1999/xlink" viewBox="0 0 595.28 446.98"><defs><style>.cls-1,.cls-7{fill:none;}.cls-2{clip-path:url(#clip-path);}.cls-3{fill:#58585b;}.cls-4,.cls-5,.cls-6{fill:#fff;}.cls-4,.cls-6,.cls-7{stroke:#58585b;}.cls-4,.cls-7{stroke-miterlimit:10;}.cls-4{stroke-width:2.83px;}.cls-6{stroke-linecap:round;stroke-linejoin:round;stroke-width:1.7px;}</style><clipPath id="clip-path"><ellipse class="cls-1" cx="293.91" cy="226.28" rx="169.48" ry="193.84"/></clipPath></defs><title>illustration</title><g class="cls-2"><path class="cls-3" d="M258.78,111.87c-2.29,14.52-.23,31.45,4.22,45.42,1.69,5.29,4.23,10,8.75,13.4,4,3,8,4.62,9.8,9.7,1.17,3.35,1.3,7,1.91,10.49.3,1.7,2.78,1.17,2.87-.39.3-5.38-.49-11.35-3.91-15.72-1.9-2.43-4.49-3.92-7.07-5.53a20.53,20.53,0,0,1-8.07-8.8c-7.13-14.77-6.76-32.55-8-48.5,0-.26-.45-.37-.5-.07Z"/><path class="cls-3" d="M335.26,113.1c-1.72,15.85-1.87,33.78-9.51,48.26a20.67,20.67,0,0,1-7.66,8.15c-2.83,1.77-5.74,3.09-7.92,5.72-3.54,4.27-4.49,10.23-4.35,15.6,0,1.59,2.52,2.06,2.87.39.71-3.44.94-7.14,2.24-10.43,1.68-4.28,5.12-6.16,8.78-8.51,5.08-3.27,8.12-7.64,10.2-13.29,5.11-13.89,7.72-31.16,5.86-45.88a.25.25,0,0,0-.5,0Z"/><path class="cls-3" d="M258.09,132.69c-5-1.08-6.82,4.82-6.22,8.74a11.94,11.94,0,0,0,9.33,10,1.36,1.36,0,0,0,.72-2.61,11,11,0,0,1-6.21-5.21c-1.24-2.37-2.46-9,2.14-9.16,1,0,1.27-1.55.24-1.77Z"/><path class="cls-3" d="M336,135.66c4.6.27,3.12,7,1.8,9.26a11.06,11.06,0,0,1-6.38,5,1.36,1.36,0,0,0,.72,2.61c5.09-.77,9-5.23,9.69-10.26.53-3.86-1.34-9.25-6.07-8.37-1,.19-.73,1.72.24,1.77Z"/><path class="cls-3" d="M291.29,79.31c-7.95-1.84-16.63-7.63-11.52-17,3.44-6.29,11-10.13,17.88-11.23,7.65-1.23,17.47.64,18.37,9.83.65,6.66-4.11,12.1-9.3,15.53-2.13,1.4-.18,4.82,2,3.44,7.32-4.59,13.1-12.41,10.85-21.46-2.39-9.64-12.42-12.15-21.23-10.94-9.11,1.25-20,7.17-22.37,16.77-2.58,10.33,6.41,14.86,15,16.19.74.11,1.08-1,.32-1.15Z"/><path class="cls-3" d="M287.46,78.48C273.66,79,259,85.63,251.13,97.25c-8,11.86-6.26,26.64,2.34,37.71,1.34,1.73,3.69-.47,2.86-2.21-2.81-5.85-6.29-11.4-6.62-18.08a26.83,26.83,0,0,1,5.78-17.29c8-10.58,20.22-13.55,32.21-17.22a.87.87,0,0,0-.23-1.7Z"/><path class="cls-3" d="M307.18,80.48c11.77,4,24,7.33,31.57,18,3.31,4.66,5.56,10.37,5.4,16.15-.2,7.33-4,13.1-7.27,19.38-.9,1.73,1.47,3.88,2.86,2.21,9.14-11.05,11.1-26.13,3-38.29-7.62-11.44-21.84-18.26-35.33-19.18-1-.07-1.11,1.4-.23,1.7Z"/><path class="cls-3" d="M259,119.32c12.39-2.59,23.74-6.39,36.62-6.21A87.7,87.7,0,0,1,332.71,122c2.13,1,4-2.15,1.86-3.19a88.84,88.84,0,0,0-38.14-8.95c-12.37-.1-27.27,1.76-37.52,9.27a.08.08,0,0,0,.06.15Z"/><path class="cls-4" d="M215.26,284.25H201.32c-3.76,0-7.63,0-11.1-1.62s-6.45-5.2-6.34-9.3c.14-5.24,4.92-8.76,9.42-10.58,8-3.24,15.79-4.53,24.2-2.63l-2.63,5.12a33.7,33.7,0,0,0-16.67,1.17c-3,1-6.12,2.92-6.22,5.76-.08,2.23,1.88,4.18,4.16,5a20.44,20.44,0,0,0,7.3.86c3.7,0,5.78-.4,9.49-.41Z"/><path class="cls-3" d="M215.86,290c-5.35.17-11.63.69-16.87-.42-6.52-1.4-9.47-6.31-12.32-11.8-.84-1.62-3.29-.19-2.45,1.43,2.63,5.07,5.38,9.93,10.91,12.16,6.23,2.51,14.15,1.68,20.72,1.47,1.82-.06,1.83-2.89,0-2.83Z"/><path class="cls-3" d="M213,269c-6.95-1.63-13.42.68-19.17,4.57-1.5,1-.08,3.48,1.43,2.45,5.09-3.45,10.78-5.74,17-4.29,1.77.42,2.53-2.32.75-2.73Z"/><path class="cls-3" d="M381.65,270.46c-2.84,11.17-5.22,22.44-7.7,33.7-2.1,9.51-4.79,18.94-6.61,28.51a148.6,148.6,0,0,1-5.12,19.94,37,37,0,0,1-4.94,10.29c-3.37,4.52-8.19,5.11-13.44,6.15-23.57,4.66-47.82,3.94-71.62,1.71-10.85-1-23.17-1.2-33.14-6.1-8.84-4.34-11.39-12.92-13.26-22-5.21-25.2-8.06-51.13-10.87-76.68l-4,1.07c.78,1.79,3,3.21,4.5,4.21,5.75,3.73,12.81,5.64,19.41,7.17,15.64,3.62,31.86,4.84,47.86,5.52a338.69,338.69,0,0,0,65.53-3.26,261.79,261.79,0,0,0,36-7.64c2.61-.79,1.5-4.89-1.13-4.1-28.38,8.54-59.06,11.7-88.57,11.11-17.46-.35-35.11-1.23-52.32-4.44-7.68-1.43-15.79-3.16-22.72-6.92a17.17,17.17,0,0,1-4.16-2.89c-.78-.78-.4-.19-.71-.91-.83-1.9-4.19-1-4,1.07,2.76,25.14,5.9,50.39,10.52,75.26,1.44,7.76,3.34,17.13,9.31,22.82,7,6.64,17.65,8.24,26.8,9.35,25.24,3.08,51,4.9,76.35,1.56,8.91-1.18,20.59-1.42,26.61-9.07,4.93-6.27,6.94-14.56,8.88-22.14,6.12-23.91,10.51-48.27,16.6-72.2C386.42,268.93,382.32,267.8,381.65,270.46Z"/><path class="cls-3" d="M218.72,336.73a40.51,40.51,0,0,0,27.54,5.12c2.69-.43,1.55-4.53-1.13-4.1a35.85,35.85,0,0,1-24.27-4.7c-2.36-1.39-4.5,2.28-2.15,3.67Z"/><path class="cls-3" d="M221.19,340.64c-8,9.87,17.78,11,22.21,10.84,2.72-.13,2.74-4.38,0-4.25a50.41,50.41,0,0,1-9.9-.41c-.6-.09-10-2.25-9.3-3.16,1.71-2.11-1.29-5.14-3-3Z"/><path class="cls-3" d="M371.87,333.06a35.86,35.86,0,0,1-24.27,4.7c-2.68-.43-3.83,3.67-1.13,4.1A40.5,40.5,0,0,0,374,336.73c2.35-1.39.22-5.07-2.15-3.67Z"/><path class="cls-3" d="M368.54,343.65c.66.82-8.49,3-9.3,3.16a50.07,50.07,0,0,1-9.9.41c-2.74-.13-2.73,4.13,0,4.25,4.48.21,30.19-1,22.21-10.84-1.72-2.13-4.71.9-3,3Z"/><path class="cls-3" d="M214.5,267.15c9-12.86,23.29-20.3,38.08-24.57a157.37,157.37,0,0,1,46.81-6.31,127.58,127.58,0,0,1,43.24,8.35,118.75,118.75,0,0,1,20,10q4.28,2.67,8.34,5.69c3.09,2.3,9.2,5.94,10.61,9.72.95,2.54,5.06,1.44,4.1-1.13-1.84-4.93-7.26-8.24-11.31-11.32a123.14,123.14,0,0,0-16.91-10.85,125.07,125.07,0,0,0-35-12.31,149.65,149.65,0,0,0-78.35,6.44C230.91,245.75,219,253.37,210.83,265c-1.57,2.25,2.11,4.37,3.67,2.15Z"/><path class="cls-4" d="M380.5,282.18h13.93c3.76,0,7.63,0,11.1-1.62s6.45-5.2,6.34-9.3c-.14-5.24-4.92-8.76-9.42-10.58-8-3.24-20-4-28.43-2.07l6.86,4.56a33.7,33.7,0,0,1,16.67,1.17c3,1,6.12,2.92,6.22,5.76.08,2.23-1.88,4.18-4.16,5a20.44,20.44,0,0,1-7.3.86c-3.7,0-5.78-.4-9.49-.41Z"/><path class="cls-3" d="M379.9,290.74c6.56.21,14.51,1,20.72-1.47,5.52-2.23,8.28-7.1,10.91-12.16.84-1.62-1.61-3.05-2.45-1.43-2.82,5.44-5.81,10.48-12.32,11.8-5.28,1.07-11.48.6-16.87.42-1.82-.06-1.82,2.78,0,2.83Z"/><path class="cls-3" d="M383.54,269.67c6.2-1.45,11.9.84,17,4.29,1.51,1,2.93-1.43,1.43-2.45-5.75-3.9-12.23-6.2-19.17-4.57-1.78.42-1,3.15.75,2.73Z"/><path class="cls-5" d="M303.23,237.34c0-5.19-.05-9.6-.23-14.35l-13.48-.17c-.25,6.68,0,10.57-.07,17.08v1.17c3.44.06,6.29-.05,9.73,0a4.69,4.69,0,0,0,2.95-.6A3.82,3.82,0,0,0,303.23,237.34Z"/><path class="cls-3" d="M304.65,237.34q0-7.18-.23-14.35a1.44,1.44,0,0,0-1.42-1.42l-13.48-.17a1.44,1.44,0,0,0-1.42,1.42c-.2,6.08-.11,12.18-.05,18.26a1.44,1.44,0,0,0,1.42,1.42c3.65,0,8.11.66,11.67-.14,2.61-.59,3.4-2.53,3.51-5,.08-1.82-2.75-1.82-2.83,0-.13,3-4.09,2.3-6.29,2.32-2,0-4,0-6,0l1.42,1.42c-.06-6.08-.15-12.18.05-18.26l-1.42,1.42,13.48.17L301.59,223q.25,7.17.23,14.35A1.42,1.42,0,0,0,304.65,237.34Z"/><path class="cls-3" d="M283.1,187.83c-.15,15.86-13.62,23.05-24.85,31.59C250.18,225.54,241,233.5,240,244.24c-.18,1.92,2.79,2.22,3.29.45,3.87-13.89,17.16-21.49,27.83-29.86,7.65-6,17.84-16.46,12.12-27a.08.08,0,0,0-.15,0Z"/><path class="cls-3" d="M309.1,188.19c-6.14,9.89,4.24,20.21,11.4,25.8,10.81,8.45,22.91,15.5,26.52,29.67.46,1.79,3.41,1.47,3.29-.45-1.66-26.19-41.74-28.72-41.05-55a.08.08,0,0,0-.15,0Z"/><path class="cls-3" d="M283.68,189.11c2,4.05,6.32,6.22,10.69,6.84,4,.57,10.27.13,12.65-3.57.63-1-.41-1.89-1.35-1.76-3.8.53-6.53,2.69-10.69,2.43s-7.66-2-11.21-4a.07.07,0,0,0-.09.09Z"/><path class="cls-3" d="M271,224.87c-2.81,3.37-5.68,8.61-5.15,13.15a1,1,0,0,0,1.88.25c.82-2.14.91-4.52,1.5-6.74s1.27-4.38,2-6.53a.15.15,0,0,0-.24-.14Z"/><path class="cls-3" d="M317.29,223.57a36.59,36.59,0,0,1,3.41,7.38c.75,2.33,1,4.8,1.86,7.1a.79.79,0,0,0,1.54-.21c.34-5.24-3.18-10.75-6.55-14.46-.12-.13-.34,0-.25.19Z"/><path class="cls-3" d="M277.1,155.09c3.45,6,11.51,3.53,17,3.26,4.39-.22,8.55,1.52,13,1.12a19.58,19.58,0,0,0,9.74-3.68c2.17-1.56.19-5.14-2.13-3.65a17.69,17.69,0,0,1-9.18,3.23c-3.27.08-6.47-.93-9.75-.8-6.49.24-11.6,2.84-17.91-.26a.58.58,0,0,0-.78.78Z"/><path class="cls-3" d="M307.16,80.34s-1.25.66-1.3.65c-6.24-1.59-12.31-2.46-19.18-1l-3.29-2.5c7.36-4.84,19.31-4.63,27.65-1.78Z"/><path class="cls-3" d="M307.15,80.3c-2,.69-4.17-.6-6.18-1.11A35,35,0,0,0,293,78.12c-1.55,0-4.74.86-5.78.52-.87-.28-2.07-1.66-2.81-2.24l-.3,2.32c7.89-4.58,18-4,26.41-1.25l-.82-3.12a54.2,54.2,0,0,0-4.1,5.09c-1.14,1.73,1.37,3.53,2.8,2.16a50.29,50.29,0,0,0,3.95-4.6,1.9,1.9,0,0,0-.82-3.12c-9.36-2.89-20.38-3.07-28.89,2.3a1.5,1.5,0,0,0,0,2.55A15.92,15.92,0,0,0,285.81,81c2.19.81,4.91-.49,7.22-.64a56.89,56.89,0,0,1,10.29.5c2.17.26,2.25.52,3.86-.49C307.22,80.35,307.2,80.28,307.15,80.3Z"/><path class="cls-3" d="M288.68,140.9a3.76,3.76,0,0,0-.09,4.14c1.22,1.86,3.11,1.06,4.9.93,2.76-.21,5.08,1.57,7.81.22a3.86,3.86,0,0,0,2.18-4.74,1.73,1.73,0,0,0-3.33.92c.31,1.45-5.59.35-6.47.48-1.11.16-2.85,1.3-3.89.16-.38-.41-.63-1.59-1-2.11a.08.08,0,0,0-.14,0Z"/><path class="cls-3" d="M275.12,132.71a3,3,0,1,0,1.23-.53"/><path class="cls-3" d="M312.84,133.29a3,3,0,1,0,1.23-.53"/><path class="cls-3" d="M304.87,156.38a3.68,3.68,0,0,1,2.37-3.71,2.81,2.81,0,0,1,3.29,2.74c.05,1.95,3.08,2,3,0-.09-3.27-3.07-6.17-6.45-5.54a5.07,5.07,0,0,0-3.86,6.73c.32.79,1.67.79,1.62-.22Z"/><path class="cls-3" d="M239.15,365c-28.51,56.66-43,120.63-45.39,183.84a2.06,2.06,0,0,0,3.06,1.76c25-11.73,51.83,5.59,76.75,8.76a59.94,59.94,0,0,0,17.7,0c6.4-1.09,12-4.12,18-6.36,13.62-5.06,27.62-1.78,41.56-.3,8.4.89,18.8,2,26.82-1.33,8.34-3.47,9.29-13,9-20.95-.92-24.87-4.85-50-9.62-74.44a648.9,648.9,0,0,0-23-84.75c-1.09-3.19-6.17-1.82-5.07,1.4,16.32,47.8,27.39,97,31.71,147.33.69,8,4,23.69-6,27-8.93,3-20.35,1.1-29.41-.06-12.54-1.6-25.16-3.33-37.31,1.24-5.13,1.93-10,4.5-15.31,5.87a52.25,52.25,0,0,1-21.19.69c-25.27-4-51.22-19.69-76.66-7.66l3.06,1.76c2.18-63.48,17.94-124.62,43.36-182.66.59-1.35-1.34-2.56-2-1.19Z"/><path class="cls-3" d="M271.74,96a86.9,86.9,0,0,0-3.47,10.53c-.77,2.87-1.83,5.8-1.33,8.77a1,1,0,0,0,1.87.24c1.48-2.68,1.55-6,2.2-9,.74-3.38,1.67-6.71,2.57-10.06.33-1.22-1.39-1.62-1.85-.51Z"/><path class="cls-3" d="M281.56,99.32a133,133,0,0,0-2.5,13.31c-.16,1,.92,2.27,1.95,1.5l.28-.21a1.22,1.22,0,0,0-.61-2.25h-.33l1.32,1.32a133.08,133.08,0,0,0,1-13.5.59.59,0,0,0-1.15-.16Z"/><path class="cls-3" d="M293.41,95.44c-.24,2.82-.36,5.64-.56,8.46s-.84,5.72-.52,8.44a1.18,1.18,0,0,0,2.3.31c1.54-5.09.78-12,.16-17.21a.69.69,0,0,0-1.38,0Z"/><path class="cls-3" d="M307.55,99.42a41.8,41.8,0,0,0-.37,7.74c0,2.36-.32,4.89.69,7.06.37.8,1.54.5,1.77-.23.73-2.29,0-5-.31-7.38a39.67,39.67,0,0,0-1.27-7.19c-.07-.23-.46-.27-.51,0Z"/><path class="cls-3" d="M315.64,97.73c.69,5.67,1.32,12.37,3.46,17.67.46,1.15,2.48,1.16,2.38-.32-.41-5.75-2.75-12.09-4.63-17.51-.21-.6-1.29-.56-1.2.16Z"/><path class="cls-3" d="M326.63,106.71a24.9,24.9,0,0,0,.51,6.32c.38,2,.64,4.42,1.78,6.18.53.81,2,.57,2-.53-.14-2-1.1-3.86-1.68-5.76-.63-2.1-1.16-4.24-1.94-6.3a.32.32,0,0,0-.63.08Z"/><path class="cls-3" d="M288.12,65.55c.57,1.27,1.12,2.54,1.74,3.79a10.56,10.56,0,0,0,2,3.32.92.92,0,0,0,1.53-.89,10.54,10.54,0,0,0-2-3.33c-.8-1.14-1.66-2.23-2.5-3.34a.45.45,0,0,0-.78.46Z"/><path class="cls-3" d="M296.07,64.07a9.32,9.32,0,0,0-.48,4.46c.12,1.4.16,3.17,1.25,4.16a.89.89,0,0,0,1.47-.39c.28-1.3-.35-2.5-.6-3.78-.29-1.43-.27-2.92-.66-4.33-.11-.4-.78-.57-1-.13Z"/><path class="cls-3" d="M305.15,64.14a39.33,39.33,0,0,0-3.25,7.7c-.29,1.14,1.42,2,2,.83a39.3,39.3,0,0,0,2.49-8c.17-.7-.86-1.21-1.21-.51Z"/><path class="cls-3" d="M261.7,145.28a4.18,4.18,0,0,1,6,3.35c.22,2.39-1.51,4.18-3.34,5.45-1.19.82-.51,3.06,1.05,2.5a7.5,7.5,0,0,0,4.69-9.77c-1.45-3.57-6-5-8.77-2a.29.29,0,0,0,.35.46Z"/><path class="cls-3" d="M330.1,144.43c-3.9-.78-7.74,2.29-8.39,6.13a8,8,0,0,0,5.34,8.85,1.32,1.32,0,0,0,1-2.4c-2.12-1.12-3.87-3.21-3.66-5.74.26-3.05,3-4.65,5.69-5.33a.79.79,0,0,0,0-1.51Z"/><path class="cls-3" d="M212.09,451c25.33-10.68,52.72-.52,78.74,1.4,13.23,1,25.51-1.07,38.27-4.41,13.52-3.54,27.55-7.52,41.15-2.17,3,1.18,4.29-3.66,1.33-4.82-12.69-5-26-2.41-38.77.86-14.07,3.6-27.33,6.63-42,5.55-26.5-2-54.24-12.11-80.07-1.22-2.92,1.23-1.64,6.07,1.33,4.82Z"/><path class="cls-3" d="M219.2,426.13c10.1-7.14,22.88-5.61,34.4-3.69,12.9,2.15,25.62,5.3,38.57,7.2,11.71,1.72,23.42,2.28,35.17.53,13.19-2,26-5.94,39.45-5.83,3.22,0,3.22-5,0-5-13-.11-25.37,3.43-38,5.57-14.32,2.42-28.56,1.21-42.77-1.32-12.67-2.26-25.2-5.37-38-7-10.75-1.38-22.15-1.25-31.32,5.24-2.61,1.84-.11,6.18,2.52,4.32Z"/><path class="cls-3" d="M226.46,404.73c11-3.45,22.29-5.69,33.84-5.37,11.95.33,22.85,4.52,34.49,6.55,21.66,3.78,43.12-3.84,64.83-2.47,3.21.2,3.2-4.8,0-5-23.24-1.47-46,6.94-69.11,1.47-10.7-2.53-20.94-5.53-32-5.58-11.35-.06-22.54,2.18-33.33,5.58-3.06,1-1.75,5.79,1.33,4.82Z"/><path class="cls-3" d="M233.71,385.91a102.11,102.11,0,0,1,30.63-4.36c10.55.28,20.34,3.64,30.66,5.3,19.58,3.14,39-3.07,58.64-2,3.21.18,3.2-4.82,0-5-21.11-1.18-41.8,5.67-62.82,1.08-9.45-2.07-18.59-4.39-28.33-4.43a108.67,108.67,0,0,0-30.1,4.56c-3.09.88-1.78,5.7,1.33,4.82Z"/><path class="cls-3" d="M246,371a480.65,480.65,0,0,0-22,174.18c.19,3.2,5.19,3.22,5,0a476.61,476.61,0,0,1,21.82-172.85c1-3.07-3.84-4.39-4.82-1.33Z"/><path class="cls-3" d="M258.48,383.22a1112.74,1112.74,0,0,0,.17,169c.25,3.19,5.25,3.21,5,0a1112.74,1112.74,0,0,1-.17-169c.24-3.21-4.76-3.19-5,0Z"/><path class="cls-3" d="M288.68,374.54a738.79,738.79,0,0,0,8.17,177.16c.53,3.17,5.35,1.82,4.82-1.33a733.39,733.39,0,0,1-8-175.83c.24-3.21-4.76-3.19-5,0Z"/><path class="cls-3" d="M330.1,380.48a1193.83,1193.83,0,0,1,24.77,167.41c.24,3.19,5.24,3.21,5,0a1203.44,1203.44,0,0,0-25-168.73c-.69-3.14-5.52-1.81-4.82,1.33Z"/><path class="cls-3" d="M331.26,547.27l-20.78-171.8c-.38-3.15-5.39-3.19-5,0l20.78,171.8c.38,3.15,5.39,3.19,5,0Z"/><path class="cls-6" d="M285.12,366.15c1.7-3.82,3.16-3.32,3.4-3.19s1.25.55.45,2.75a30.65,30.65,0,0,1-1.86,4.31c-2,4.13-5.61,9.19-10.19,11.44a17.32,17.32,0,0,1-15.31-.61A16.78,16.78,0,0,1,253,369.17l9.37,1.48"/><path class="cls-6" d="M278.11,371c6.49-11.1,5.74-14.36,8.14-13.82,1.44.33,1.33,2.51.85,4-1.81,5.53-2.22,5.76-4.89,11.05"/><path class="cls-6" d="M273.57,369c3.4-3.23,5.14-15,8.14-13.75,2.81,1.21-.93,11-3.82,15.95"/><path class="cls-6" d="M267.33,368.58c2.19-.32,3.71-4,4.66-6,1.34-2.8,2.61-6.44,4.81-5.88,3.19.81-.35,8.47-3.46,12.91"/><path class="cls-6" d="M260.86,372a9.69,9.69,0,0,0,5.5-6.14c.28-1.07,1-2.54,2.24-2.18a1.78,1.78,0,0,1,1.09,1.84,23.88,23.88,0,0,1-1.35,6.48"/><path class="cls-6" d="M306.68,368.35c-1.58-3.87-3.06-3.41-3.3-3.29-.39.2-1.27.51-.54,2.74a30.65,30.65,0,0,0,1.73,4.37c1.89,4.19,5.33,9.36,9.84,11.75a17.32,17.32,0,0,0,15.32-.14,16.78,16.78,0,0,0,8.92-11.43l-9.41,1.19"/><path class="cls-6" d="M313.53,373.44c-6.15-11.3-5.3-14.53-7.71-14.06-1.45.28-1.41,2.47-1,3.95,1.64,5.58,2,5.82,4.55,11.2"/><path class="cls-6" d="M318.14,371.53c-3.3-3.33-4.68-15.18-7.71-14-2.85,1.12.59,11.06,3.34,16.05"/><path class="cls-6" d="M324.39,371.32c-2.18-.39-3.58-4.14-4.48-6.17-1.25-2.84-2.42-6.51-4.62-6-3.21.71.09,8.47,3.07,13"/><path class="cls-6" d="M330.75,374.92a9.69,9.69,0,0,1-5.31-6.31c-.25-1.08-.88-2.57-2.18-2.25a1.78,1.78,0,0,0-1.15,1.81,23.88,23.88,0,0,0,1.15,6.52"/><polyline class="cls-7" points="241.69 397.65 235.81 417.69 244.11 418.04 256.2 419.77 260 408.71 259.31 396.62"/><ellipse class="cls-5" cx="296.45" cy="222.35" rx="6.74" ry="2.46"/><path class="cls-3" d="M301.82,222c-.4,2.15-10.47,1.7-10.47.38s10.08-1.77,10.47.38c.33,1.79,3.06,1,2.73-.75-.61-3.29-6.06-3.55-8.56-3.49-2.27.06-7.7.55-7.7,3.87s5,3.74,7.24,3.86c2.56.14,8.39-.06,9-3.48C304.89,220.94,302.15,220.17,301.82,222Z"/><path class="cls-3" d="M223.18,233.76c-3.25-10.28-7.85-20.24-12-30.18-2.19-5.19-9.83-.72-7.61,4.45,4.23,9.84,10.42,19.45,18.71,26.28.4.33,1.12,0,.94-.55Z"/><path class="cls-3" d="M377.25,246.46c2.93.69,7.46-4.43,9.48-6s4.22-3.26,6.44-4.75c2.38-1.6,4.61-2.65,6.12-5.17a4.45,4.45,0,0,0-5-6.47c-5.34,1.55-10,8.51-13.1,12.94-.34.49-6.11,9-4,9.49Z"/><path class="cls-3" d="M195.06,238.88a28.57,28.57,0,0,0-3.84-3.72c-1.48-1.3-2.44-3-3.83-4.34a4.37,4.37,0,0,0-5.72-.34c-1.53,1.22-2.46,3.88-1.12,5.62,3,3.94,9.39,7,14.24,4.94.9-.39.76-1.55.28-2.17Z"/><path class="cls-3" d="M399.94,248.62c1.14.09,1.85.71,2.88,1a11,11,0,0,0,3.2.26c2.39,0,4.26-.75,5.19-3.06a2,2,0,0,0-1.41-2.48c-2.05-.32-3.21.43-4.87,1.53-.69.46-1.44.79-2.16,1.19-1,.56-1.59,1.16-2.84,1.06-.3,0-.3.45,0,.47Z"/><path class="cls-3" d="M234.64,244.52c7.91,6.74,18.4,8.37,28.37,9.87a233.36,233.36,0,0,0,33.72,2.53,242.36,242.36,0,0,0,33.56-2.27c9-1.22,17.5-3.44,24.26-9.78,1.33-1.25-.67-3.25-2-2-7.19,6.74-16.64,8.29-26.06,9.43a239.91,239.91,0,0,1-29.76,1.79,230.16,230.16,0,0,1-31.22-2.17c-9.87-1.39-21-2.71-28.87-9.39-1.38-1.18-3.4.82-2,2Z"/><path class="cls-3" d="M221.81,251.87c9.47,8.18,22.27,10.13,34.26,11.94a284.08,284.08,0,0,0,40.62,3.11,299.47,299.47,0,0,0,40.59-2.61c11.26-1.46,22.15-4,30.61-12,1.33-1.26-.68-3.26-2-2-9.12,8.64-21.32,10.34-33.3,11.77a287.63,287.63,0,0,1-35.9,2,280.88,280.88,0,0,1-38.13-2.75c-11.88-1.71-25.34-3.34-34.74-11.47-1.37-1.19-3.39.81-2,2Z"/></g></svg>
