<svg id="Layer_1" data-name="Layer 1" xmlns="http://www.w3.org/2000/svg" viewBox="0 0 595.28 841.89"><defs><style>.cls-1,.cls-3{fill:#231f20;}.cls-1,.cls-4,.cls-5{stroke:#231f20;stroke-miterlimit:10;stroke-width:5.67px;}.cls-2,.cls-4{fill:#fff;}.cls-5{fill:none;}</style></defs><title>illustration</title><path class="cls-1" d="M506.38,496.31c36.27,10-4.27,31-4.27,31l-110,54,16-70Z"/><path class="cls-2" d="M441.62,524.81c21-8,29.39-11.53,46.89-18.5,6.4-2.55,13.09-5.06,17.88-10,5.81-6,7.9-14.55,9.76-22.69,3.23-14.11,9.24-38.38,12.47-52.48,1.16-5.07,2.33-10.25,1.86-15.43a35.86,35.86,0,0,0-3.85-13.32,519.49,519.49,0,0,0-35.67-59.58"/><path class="cls-3" d="M442.28,527.22c14.94-5.7,29.77-11.67,44.63-17.6,7.22-2.88,15-5.48,20.67-11S516,485,517.84,477.35c3.68-15.14,7.23-30.32,10.83-45.48,1.86-7.85,4.59-16.1,4.41-24.23-.2-9.34-4.54-17.07-8.83-25.09a569.29,569.29,0,0,0-31.14-51c-1.8-2.65-6.13-.15-4.32,2.52,9.09,13.38,17.81,27,25.71,41.09,4.19,7.49,9.43,15.32,12,23.53,2.85,9,.66,17.65-1.43,26.56-3.36,14.33-6.9,28.62-10.26,42.95-1.68,7.16-2.91,14.76-6.53,21.26-4.57,8.21-12.93,11.45-21.23,14.76-15.36,6.11-30.68,12.3-46.13,18.19-3,1.14-1.69,6,1.33,4.82Z"/><path class="cls-2" d="M490.53,340.29c-8.2,51.68-18.64,108.4-29,157.27-6,28.28-34.85,31.26-34.85,31.26L261.18,509.89s-9.56-.32-29.24-26.06l177.88,22.34L432,496.58l12.68-21.67,33.69-165.85S492.65,326.93,490.53,340.29Z"/><path class="cls-3" d="M488.14,339.63c-8.27,52.06-17.6,104-28.66,155.58-3.27,15.25-13.34,26.16-28.46,30.2-4,1.07-5.61.79-10.12.27L279,509.45c-5.88-.67-11.95-1-17.78-2,0,0,.31.14-.61-.17a20.93,20.93,0,0,1-4.59-2.3c-8.75-5.57-15.72-14.27-22-22.37l-2.14,3.73,72.66,9.13,97.64,12.26c2.31.29,5.14,1.13,7.47.94a15.05,15.05,0,0,0,4.35-1.61l12.07-5.22c2.27-1,5.76-1.75,7.62-3.47s2.87-4.74,4.05-6.77c3-5.09,7.36-10.53,9.29-16.12a62.16,62.16,0,0,0,1.58-7.77L452.26,450l10.66-52.48,11-54.19,4.15-20.42c.75-3.7,2.23-7.87,2.37-11.64a10.16,10.16,0,0,1,.32-1.56l-4.15,1.09c5.82,7.35,12.72,19,11.44,29.48-.39,3.16,4.58,3.13,5,0,1.45-11.77-5.84-24.08-12.89-33-1.14-1.44-3.8-.62-4.15,1.09l-14.66,72.18L443,470.73c-.21,1-.34,2.13-.64,3.15-.09.3-.25.8.15-.18a23.24,23.24,0,0,1-1.6,2.73l-6.69,11.43-2.92,5c-.34.59-1.94,2.78-1,2,1.11-.91-1.58.45-1.91.59l-5.61,2.42L410.94,503c-.68.3-3,.9-1.72.85,1.43-.06.32-.17.14-.22a21.65,21.65,0,0,0-3.06-.38L316.92,492c-27.76-3.49-55.61-8-83.48-10.48-.5,0-1-.13-1.5-.19-1.77-.22-3.23,2.32-2.14,3.73,6.12,7.94,12.63,15.85,20.66,22,2.79,2.13,6,4.35,9.48,5.15s7.1.85,10.55,1.25l73.43,8.4,73.43,8.4c3.65.42,7.52,1.39,11.18.8,11.57-1.86,22.73-8.58,29.31-18.3,6.87-10.15,8-23.44,10.35-35.15q4.58-22.46,8.81-45,8.6-45.71,15.92-91.65C493.42,337.83,488.64,336.48,488.14,339.63Z"/><path class="cls-4" d="M483.85,317S462,439.21,454,488.37c-5.39,33.31-34.74,31.27-34.74,31.27L269.62,499.72c-8.06-.71-14.77-9.1-12.75-19.45,9.37-48,30.36-164.73,30.36-164.73s6.69-28.69,40.16-24.12c49.41,6.74,99.67,7.17,143.16,15.38C473.34,307.33,479.28,307.38,483.85,317Z"/><path class="cls-4" d="M419.67,441.89c-10.77,65.6-11.1,70.55-19.8,119.59a35.82,35.82,0,0,1-8.39,17.92C388.6,582.66,375.05,589,371,590.6c-23.77,9.42-38.4,13.71-62.56,22.09-8.37,2.9-16.94,5.78-25.79,5.88-6.83.08-13.56-1.49-20.17-3.19a490.57,490.57,0,0,1-87.35-31.56c-8.09-3.82-16.4-8.14-21.61-15.42-4.82-6.73-6.4-15.19-7.72-23.36-5.48-33.79-8.55-65.83-11.72-101.82"/><line class="cls-5" x1="278.6" y1="477.86" x2="280.56" y2="615.59"/><path class="cls-2" d="M417.87,454.06c-37.25,11-79.3,22.82-116.64,32.75-21.61,5.75-46.53,1.32-46.53,1.32L133.12,454.06s-7.49-1.78-8-11.5l129.52,37.11,23.48,1.64,23-3,126.71-35.79S427.5,451.21,417.87,454.06Z"/><path class="cls-3" d="M417.3,452q-53,15.63-106.35,30c-18.58,5-39.41,8.64-58.44,3.31l-95.35-26.72-19.73-5.53c-5.61-1.57-9.55-3.5-10.2-10.5l-2.69,2.05,126.64,36.29c7.42,2.13,15.59,1.75,23.25,2.28,4.22.29,8-.3,12.26-.85,5-.64,10.15-.92,15.06-1.95,6.29-1.32,12.51-3.53,18.69-5.28l39.83-11.25,68.15-19.25-2.69-2.05c-.29,4.7-4.29,8-8.44,9.45-2.58.88-1.47,5,1.13,4.1,6.06-2.06,11.15-6.84,11.56-13.55a2.14,2.14,0,0,0-2.69-2.05c-41.61,11.75-83.5,22.78-124.9,35.27-2.46.74-2.41.59-5.81,1-6,.77-12.11,2.05-18.13,2.33-4.61.21-9.44-.59-14-.91-2.85-.2-5.71-.36-8.56-.6-1.77-.15-.1.1-1.26-.18-21.09-5-41.9-12-62.74-18l-66.19-19a2.14,2.14,0,0,0-2.69,2.05c1.24,13.34,12.4,14.35,22.83,17.27l53.28,14.93,48.83,13.69c14.93,4.19,31,4.52,46.29,2,10.17-1.67,20.18-5,30.11-7.67q15.67-4.27,31.31-8.64,31.46-8.8,62.79-18C421,455.33,419.93,451.23,417.3,452Z"/><path class="cls-4" d="M427.05,442.91s-90.26,25.16-125.89,35.43c-24.14,7-46.53,1.32-46.53,1.32l-124.5-34.47c-6.06-1.58-6.46-4.75,1.32-6.85C167.55,428.6,253.8,404.6,253.8,404.6s22.43-5.63,46.63,1.32c35.72,10.27,91.88,22.68,122,32.25C424.33,438.78,429.07,439.84,427.05,442.91Z"/><path class="cls-4" d="M413.24,331.69c-10.77,51.66-11.1,55.56-19.8,94.18A26.5,26.5,0,0,1,385.05,440c-2.88,2.56-16.43,7.55-20.47,8.81-23.77,7.42-38.4,10.8-62.56,17.4-8.37,2.29-16.94,4.55-25.79,4.63-6.83.06-13.56-1.18-20.17-2.52a582,582,0,0,1-87.35-24.85c-8.09-3-16.4-6.41-21.61-12.14-4.82-5.3-6.4-12-7.72-18.39-5.48-26.61-8.55-51.84-11.72-80.18"/><line class="cls-5" x1="272.67" y1="361.2" x2="274.63" y2="469.66"/><path class="cls-2" d="M411.94,343.4c-37.25,9.57-79.3,19.85-116.64,28.49-21.61,5-46.53,1.15-46.53,1.15L127.19,343.4a10.6,10.6,0,0,1-8-10L248.09,363l23.48,1.43,23-2.58L421.94,333.4S421.57,340.93,411.94,343.4Z"/><path class="cls-3" d="M411.37,341.35q-53,13.59-106.19,26.06c-18.68,4.37-39.3,7.62-58.34,3l-94.36-23-20.32-5c-5.24-1.28-10.09-2.29-10.85-9l-2.69,2.05,126.54,29c7.67,1.76,15.95,1.41,23.77,1.89,3.94.24,7.78-.41,11.71-.85,4.83-.54,9.79-.82,14.58-1.65,19.7-3.41,39.25-8.76,58.75-13.11l68.53-15.29-2.69-2.05c-.29,4-4.67,6.83-8.44,8-2.62.78-1.5,4.88,1.13,4.1,5.65-1.69,11.1-5.7,11.56-12.05a2.15,2.15,0,0,0-2.69-2.05l-125.2,27.93a29.9,29.9,0,0,1-5.35.82c-6.16.69-12.41,1.78-18.6,2.08-4.41.22-9-.43-13.38-.7-3-.18-6-.41-9-.55-.55,0-1.13,0-1.69-.1,1,.14.29,0,0,0-20.64-3.72-41.12-9.43-61.56-14.12l-66.88-15.34c-1.21-.28-2.85.6-2.69,2.05,1.41,12.55,13.92,13.12,23.73,15.51L194.67,362l47.65,11.62c14.92,3.64,30.8,3.85,46,1.68,10.26-1.47,20.39-4.37,30.46-6.76q15.45-3.66,30.88-7.42,31.48-7.66,62.86-15.71C415.15,344.77,414,340.67,411.37,341.35Z"/><path class="cls-4" d="M421.13,333.68s-90.26,19.82-125.89,27.9c-24.14,5.48-46.53,1-46.53,1l-124.5-27.15c-6.06-1.24-6.46-3.74,1.32-5.39,36.09-7.68,122.35-26.58,122.35-26.58s22.43-4.44,46.63,1c35.72,8.08,91.88,17.86,122,25.4C418.4,330.43,423.15,331.26,421.13,333.68Z"/><path class="cls-3" d="M162,387.9c3.22,0,3.22-5,0-5s-3.22,5,0,5Z"/><path class="cls-3" d="M225,401.4c3.22,0,3.22-5,0-5s-3.22,5,0,5Z"/><path class="cls-3" d="M168.2,412.58c12,17.29,36.62,22.86,54.81,12.1,2.77-1.64.26-6-2.52-4.32-15.73,9.3-37.49,4.76-48-10.31-1.82-2.62-6.16-.13-4.32,2.52Z"/><path class="cls-3" d="M122.5,518.87a28.2,28.2,0,0,1,43.4-3.93c3.81,3.89,12.48,19.58,1.84,21.2-3.66.56-7.76-2.66-6.39-6.52,1.91-5.39,7.39-4.55,11-1.54,2.45,2.05,6-1.47,3.54-3.54-4.5-3.77-10.29-5.82-15.39-1.82-3.35,2.62-5.46,7.25-4,11.43,1.63,4.63,6.8,7.5,11.58,7,5.52-.56,8.92-5.38,9.41-10.6,1.25-13.36-11.48-25-23.43-28.18-13.69-3.66-28,2.49-35.89,14-1.83,2.66,2.5,5.16,4.32,2.52Z"/><path class="cls-3" d="M289.42,541.44c-7.26-12-21.23-18.68-35.09-15.86-12.1,2.47-25.47,13.51-24.89,26.88.23,5.29,3.45,10.16,8.92,11A11.22,11.22,0,0,0,250.24,557a11,11,0,0,0-2.33-11.36c-4.06-4.2-9.74-3.18-14.5-.93-2.91,1.37-.37,5.69,2.52,4.32,3.46-1.64,7.9-2.3,9.59,2a5.49,5.49,0,0,1-4.45,7.46c-6,1-7.31-5.54-6.25-10A22,22,0,0,1,241,538.29c13.08-13.07,34.64-9.94,44.11,5.68,1.67,2.75,6,.24,4.32-2.52Z"/><path class="cls-3" d="M168.76,540.15c6.07,10,16.2,16.26,27.44,18.94s26.31,4,36.51-2.3c2.74-1.68.23-6-2.52-4.32-8.89,5.45-22.91,4.09-32.66,1.79-10-2.36-19-7.74-24.46-16.64-1.67-2.75-6-.24-4.32,2.52Z"/><path class="cls-3" d="M294.56,400.34l.05,22.44c0,3.68-1.49,11,3.75,11.93,2.41.42,5.39-.76,7.67-1.27L316.71,431l22.32-5,21.35-4.78c3.56-.8,7.13-1.56,10.67-2.39,2-.46,4-.7,5.33-2.41s1.15-4.43,1.31-6.44l.86-10.56,1.88-23c.26-3.21-4.74-3.19-5,0-.9,11.07-.92,22.66-2.74,33.61a7.23,7.23,0,0,1-1,3.6l-1.94.43a23.5,23.5,0,0,1-3.88.87l-8.73,2-17.47,3.91-34,7.6c-1.29.29-2.58.62-3.88.87-2.69.51-2.16,0-2.17-2.59l0-7.81,0-18.54c0-3.22-5-3.22-5,0Z"/><path class="cls-3" d="M296.67,400.3l81.23-21.13c3.11-.81,1.79-5.63-1.33-4.82l-81.23,21.13c-3.11.81-1.79,5.63,1.33,4.82Z"/><path class="cls-3" d="M307.62,402.31l.08,13.91a2.54,2.54,0,0,0,2.5,2.5,32,32,0,0,0,14.11-3.42c2.88-1.43.35-5.74-2.52-4.32a26.23,26.23,0,0,1-11.59,2.73l2.5,2.5-.08-13.91c0-3.22-5-3.22-5,0Z"/><path class="cls-3" d="M327.62,397.31v18c0,3.22,5,3.22,5,0v-18c0-3.22-5-3.22-5,0Z"/><path class="cls-3" d="M338.58,396.31l.14,13a2.54,2.54,0,0,0,3.16,2.41,45,45,0,0,0,11.42-3.42c2.94-1.3.4-5.61-2.52-4.32a40.4,40.4,0,0,1-10.23,2.91l3.16,2.41-.14-13c0-3.22-5-3.22-5,0Z"/><path class="cls-3" d="M350,394.56a28.78,28.78,0,0,0,7.34,8.57,2.59,2.59,0,0,0,3.54,0,2.51,2.51,0,0,0,0-3.54,25.23,25.23,0,0,1-6.55-7.56c-1.58-2.8-5.9-.28-4.32,2.52Z"/><path class="cls-3" d="M361,390.73l-8.59,25.81c-1,3.06,3.81,4.37,4.82,1.33l8.59-25.81c1-3.06-3.81-4.37-4.82-1.33Z"/><path class="cls-2" d="M367.12,369.4l-2.94-.07a51.19,51.19,0,0,0-3,11.91,76.44,76.44,0,0,1,25.73,2.88,44.87,44.87,0,0,1,3.3-12.15Z"/><path class="cls-3" d="M367.12,367.28l-2.94-.07a2.18,2.18,0,0,0-2.05,1.56,58.93,58.93,0,0,0-3,11.91,2.16,2.16,0,0,0,2.05,2.69,79.58,79.58,0,0,1,25.17,2.8,2.14,2.14,0,0,0,2.62-1.48,51.44,51.44,0,0,1,3.3-12.15c.57-1.42-.84-2.56-2.05-2.69l-23.05-2.56c-2.72-.3-2.69,4,0,4.25l23.05,2.56-2.05-2.69a51.44,51.44,0,0,0-3.3,12.15l2.62-1.48a83.27,83.27,0,0,0-26.3-3l2.05,2.69a58.93,58.93,0,0,1,3-11.91l-2.05,1.56,2.94.07C369.86,371.6,369.86,367.34,367.12,367.28Z"/><path class="cls-2" d="M294,424.82l-2.81-.89A51.19,51.19,0,0,0,285,434.52a76.44,76.44,0,0,1,23.92,9.92,44.87,44.87,0,0,1,6.55-10.75Z"/><path class="cls-3" d="M294.56,422.77l-2.81-.89a2.19,2.19,0,0,0-2.4,1,58.93,58.93,0,0,0-6.23,10.59,2.16,2.16,0,0,0,1.27,3.12,79.23,79.23,0,0,1,23.41,9.7,2.14,2.14,0,0,0,2.91-.76,48.43,48.43,0,0,1,6.21-10.32,2.17,2.17,0,0,0-.94-3.55l-21.43-8.87c-2.53-1-3.63,3.07-1.13,4.1l21.43,8.87-.94-3.55A52.81,52.81,0,0,0,307,443.37l2.91-.76a82.92,82.92,0,0,0-24.42-10.13l1.27,3.12A58.93,58.93,0,0,1,293,425l-2.4,1,2.81.89C296,427.7,297.16,423.59,294.56,422.77Z"/><path class="cls-3" d="M303.85,531.6l1,22.42c.16,3.65-1.05,11.08,4.15,11.84,2.48.36,5.28-.91,7.61-1.54l10.56-2.84,22.09-5.93,21.13-5.67c3.52-.95,7.05-1.86,10.56-2.84,1.88-.53,4.05-.86,5.27-2.57s1-4.45,1.09-6.48l.42-10.59.91-23.11c.13-3.22-4.87-3.21-5,0-.45,11.45-.11,23.27-1.36,34.66-.39,3.53-2.32,3.18-5.53,4l-8.64,2.32-18.25,4.9-34.57,9.28c-1,.28-2.77,1.12-3.84,1-1.81-.15-1.07.56-1.37-1.64-.39-2.87-.26-5.88-.39-8.77l-.82-18.52c-.14-3.2-5.14-3.22-5,0Z"/><path class="cls-3" d="M305.86,531.61l80.26-24.54c3.07-.94,1.76-5.77-1.33-4.82l-80.26,24.54c-3.07.94-1.76,5.77,1.33,4.82Z"/><path class="cls-2" d="M375.05,497.74l-2.94.05a51.19,51.19,0,0,0-2.53,12,76.44,76.44,0,0,1,25.83,1.79,44.87,44.87,0,0,1,2.78-12.28Z"/><path class="cls-3" d="M375.05,495.61l-2.94.05a2.19,2.19,0,0,0-2.05,1.56,61.86,61.86,0,0,0-2.61,12.59,2.13,2.13,0,0,0,2.13,2.13,79.57,79.57,0,0,1,25.26,1.72,2.16,2.16,0,0,0,2.69-2.05,49.21,49.21,0,0,1,2.71-11.71,2.15,2.15,0,0,0-2.05-2.69l-23.14-1.59c-2.73-.19-2.72,4.06,0,4.25l23.14,1.59-2.05-2.69a54,54,0,0,0-2.86,12.84l2.69-2.05a83.24,83.24,0,0,0-26.39-1.87l2.13,2.13a56.28,56.28,0,0,1,2.46-11.46l-2.05,1.56,2.94-.05C377.78,499.82,377.79,495.57,375.05,495.61Z"/><path class="cls-2" d="M304.32,556.19l-2.84-.77a51.19,51.19,0,0,0-5.78,10.84,76.44,76.44,0,0,1,24.31,8.9,44.87,44.87,0,0,1,6.09-11Z"/><path class="cls-3" d="M304.89,554.14l-2.84-.77a2.19,2.19,0,0,0-2.4,1,61.72,61.72,0,0,0-6,11.35,2.13,2.13,0,0,0,1.48,2.62,79.19,79.19,0,0,1,23.8,8.69,2.16,2.16,0,0,0,3.12-1.27,48.38,48.38,0,0,1,5.87-10.51c.87-1.2-.11-2.7-1.27-3.12l-21.78-8c-2.57-.94-3.68,3.17-1.13,4.1l21.78,8-1.27-3.12A52.88,52.88,0,0,0,318,574.6l3.12-1.27a82.91,82.91,0,0,0-24.82-9.12l1.48,2.62a56.44,56.44,0,0,1,5.56-10.34l-2.4,1,2.84.77C306.4,559,307.53,554.85,304.89,554.14Z"/><path class="cls-3" d="M321.63,531l-3.37,18.46,4.91.66.11-1.78c.2-3.21-4.8-3.2-5,0l-.11,1.78c-.17,2.78,4.4,3.45,4.91.66l3.37-18.46c.57-3.15-4.24-4.5-4.82-1.33Z"/><path class="cls-3" d="M322.49,534a43,43,0,0,1,8.16,17c.75,3.13,5.57,1.8,4.82-1.33A48.71,48.71,0,0,0,326,530.42c-2-2.52-5.52,1-3.54,3.54Z"/><path class="cls-3" d="M322.11,549.38l8-3.33a2.58,2.58,0,0,0,1.75-3.08,2.52,2.52,0,0,0-3.08-1.75l-8,3.33a2.58,2.58,0,0,0-1.75,3.08,2.52,2.52,0,0,0,3.08,1.75Z"/><path class="cls-3" d="M339.82,548.3l1.1-18.16-4.66,1.26c1.72,2.82,4.16,9.87,8.58,8.43,3.9-1.27,5.05-8.88,6.21-12.08l-4.91-.66a103.9,103.9,0,0,0,3.18,18c.84,3.1,5.66,1.79,4.82-1.33a96.18,96.18,0,0,1-3-16.67,2.51,2.51,0,0,0-4.91-.66c-.54,1.5-1.34,5.95-2.55,7l.06.64-.79-1.3c-.85-1.24-1.59-2.61-2.38-3.89a2.52,2.52,0,0,0-4.66,1.26l-1.1,18.16c-.19,3.21,4.81,3.2,5,0Z"/><path class="cls-3" d="M352.36,529.39l7.75,7.59c2.3,2.25,5.84-1.28,3.54-3.54l-7.75-7.59c-2.3-2.25-5.84,1.28-3.54,3.54Z"/><path class="cls-3" d="M364.48,521.68l-7,21c-.9,2.69,3.22,4.4,4.57,1.93l.93-1.71c1.54-2.83-2.77-5.35-4.32-2.52l-.93,1.71,4.57,1.93,7-21c1-3.06-3.8-4.37-4.82-1.33Z"/><path class="cls-3" d="M322,287.9c2.78-7.83,7.94-20.64,18.48-18.8,12,2.09,14.52,16.48,16.12,26.32.52,3.17,5.34,1.82,4.82-1.33-2-12.22-6.52-29.05-21.66-30.09-12.8-.88-19,12.47-22.59,22.57-1.08,3,3.75,4.35,4.82,1.33Z"/><path class="cls-2" d="M353.89,278.35c3.23,10.7,2.37,16.41-1.27,20.45-4.5,5-9.39,6.13-16.25,3.25-2.27-1-4.62-5.11-5.5-7.5-3.45-9.4-4.82-24.95,4.82-27.09C340.87,266.31,350,265.56,353.89,278.35Z"/><path class="cls-3" d="M351.48,279c2.15,7.5,4,17.94-5.3,21.48-9.75,3.7-13.78-7-15-14.5-.91-5.75-1.3-14.65,5.8-16.27,7.35-1.67,12.19,2.48,14.46,9.29,1,3,5.84,1.74,4.82-1.33-3.16-9.49-10.46-15.06-20.61-12.78s-10.71,14-9.29,22.42c1.72,10.27,7.76,21.7,20.25,18.33,13.08-3.53,12.63-17.6,9.65-28C355.41,274.6,350.58,275.91,351.48,279Z"/><path class="cls-3" d="M339.12,287.31c3.22,0,3.22-5,0-5s-3.22,5,0,5Z"/><path class="cls-3" d="M460.21,301.84c-.79-10.55-3.12-24.71-15.33-27.59-15.09-3.56-24.15,11.85-29.34,23.22-1.33,2.91,3,5.45,4.32,2.52,4.13-9,10.94-23.3,23.29-21,10,1.9,11.45,14.52,12.07,22.81.24,3.19,5.24,3.21,5,0Z"/><path class="cls-2" d="M426.93,284.24c-5.93,9.48-6.6,15.21-4.15,20.07,3,6,7.45,8.39,14.82,7.41,2.44-.32,5.81-3.72,7.28-5.79,5.8-8.16,11.21-22.8,2.48-27.41C442.66,276,434,272.92,426.93,284.24Z"/><path class="cls-3" d="M424.77,283c-5.46,9-9.42,21,.64,28.58,9.65,7.3,19.36.33,24.23-8.54,4.24-7.73,8.67-21.05-1-26.66-9.26-5.36-18.17-1.86-23.85,6.62-1.8,2.68,2.53,5.19,4.32,2.52,4-6,10.42-9,17-4.82s2.11,14.56-.77,19.82c-1.61,2.93-3.84,6.84-7,8.31a10.34,10.34,0,0,1-11-2.23c-6.26-6.44-2.11-14.64,1.79-21.07C430.76,282.75,426.44,280.23,424.77,283Z"/><path class="cls-3" d="M434.48,296.85c3.22,0,3.22-5,0-5s-3.22,5,0,5Z"/><path class="cls-3" d="M420.79,308a65.4,65.4,0,0,1-26.68,5c-6.58-.33-10.09-1-16.67-1.33-4.38-.22-10-2.58-14.1-4s-8-4.3-9.6-8.37l1.36-5.6,65,6.33Z"/><path class="cls-3" d="M420.13,305.56a64.91,64.91,0,0,1-19.8,4.81c-6.74.51-13.41-.58-20.12-1.06-6.28-.45-13.41-2.17-18.92-5.39a14.86,14.86,0,0,1-4.12-3.7c-1.26-1.53-.73.07-.74-1.39s.77-3.16,1.1-4.52l-2.41,1.84,65,6.33-2.5-2.5.68,8c.27,3.18,5.27,3.21,5,0l-.68-8a2.59,2.59,0,0,0-2.5-2.5l-65-6.33A2.51,2.51,0,0,0,352.7,293c-1.19,4.89-2.2,7.54,1.56,11.7,4.53,5,12.66,7.43,19,8.85a107.67,107.67,0,0,0,23.84,2,67,67,0,0,0,24.3-5.14C424.39,309.17,423.1,304.33,420.13,305.56Z"/></svg>